<?xml version="1.0" encoding="UTF-8" standalone="no"?>
<!-- Created with Inkscape (http://www.inkscape.org/) -->

<svg
   version="1.1"
   id="svg831"
   width="160"
   height="160"
   viewBox="0 0 160 160"
   sodipodi:docname="logo500.svg"
   inkscape:version="1.1.2 (b8e25be833, 2022-02-05)"
   xmlns:inkscape="http://www.inkscape.org/namespaces/inkscape"
   xmlns:sodipodi="http://sodipodi.sourceforge.net/DTD/sodipodi-0.dtd"
   xmlns="http://www.w3.org/2000/svg"
   xmlns:svg="http://www.w3.org/2000/svg">
  <defs
     id="defs835" />
  <sodipodi:namedview
     id="namedview833"
     pagecolor="#ffffff"
     bordercolor="#666666"
     borderopacity="1.0"
     inkscape:pageshadow="2"
     inkscape:pageopacity="0.0"
     inkscape:pagecheckerboard="0"
     showgrid="false"
     inkscape:zoom="5.05"
     inkscape:cx="68.019802"
     inkscape:cy="67.920792"
     inkscape:window-width="1920"
     inkscape:window-height="1017"
     inkscape:window-x="-8"
     inkscape:window-y="-8"
     inkscape:window-maximized="1"
     inkscape:current-layer="g837" />
  <g
     inkscape:groupmode="layer"
     inkscape:label="Image"
     id="g837">
    <g
       id="g1296"
       transform="translate(-4.5544519,0.99009903)">
      <path
         style="fill:#b2f687;stroke-width:0.32"
         d="m 113.90265,153.01611 c -0.78246,-0.49715 -1.91284,-1.46915 -2.51197,-2.16 -1.36091,-1.56929 -2.14581,-2.03036 -3.48096,-2.04477 -1.68961,-0.0182 -3.07283,-0.78389 -4.58001,-2.53515 -0.77534,-0.9009 -1.84171,-1.77465 -2.36971,-1.94167 -1.835302,-0.58053 -5.907206,-0.96219 -12.214963,-1.14492 -7.197255,-0.2085 -11.100871,-0.59183 -13.300979,-1.30615 C 73.844784,141.3642 72.64,140.17799 72.64,139.12261 c 0,-0.47006 -0.142886,-0.57592 -0.56,-0.41489 -0.308,0.11891 -1.496,0.43707 -2.64,0.70703 -5.821674,1.37375 -11.748438,-1.19257 -13.878275,-6.00938 -0.731869,-1.65519 -0.888643,-1.80756 -2.017626,-1.96088 -2.475155,-0.33613 -3.507181,-1.30202 -5.378953,-5.03423 -0.94458,-1.88344 -2.118202,-3.90074 -2.608045,-4.48288 -1.601824,-1.90366 -4.258314,-2.66697 -6.772381,-1.94594 -0.861245,0.247 -1.265386,0.17476 -2.237888,-0.4 -0.972144,-0.57456 -1.681312,-0.70144 -3.920429,-0.70144 -2.685925,0 -2.770967,0.0243 -4.876762,1.39548 -1.220949,0.79499 -2.351109,1.31568 -2.626405,1.21004 C 24.710274,121.32705 24.64,120.14885 24.64,113.38367 c 0,-11.95821 1.060478,-18.880531 4.226838,-27.590889 3.125287,-8.59737 6.812964,-14.030295 13.357488,-19.679114 C 49.008077,60.258365 50.535168,58.565219 49.04,58.556874 48.303104,58.552778 45.420272,57.201162 44.158198,56.26807 42.234099,54.84552 41.1264,52.173718 41.49319,49.84 c 0.244196,-1.553677 0.881028,-1.538666 1.686276,0.03975 0.897689,1.759619 2.384515,2.920253 3.740979,2.920253 1.351888,0 2.856125,-0.734074 3.334009,-1.627011 0.303588,-0.567258 0.248519,-0.687709 -0.390512,-0.854154 -0.973558,-0.253581 -4.547209,-2.153139 -6.235292,-3.314345 -2.828125,-1.945418 -4.723076,-5.11209 -4.951396,-8.274327 -0.138515,-1.918432 0.38048,-1.928438 1.254077,-0.02416 1.194765,2.604336 3.967959,4.490791 8.23593,5.602455 C 50.256221,44.852566 52.8,44.961837 52.8,44.507462 52.8,44.34656 52.059046,43.758998 51.15344,43.201773 45.446378,39.690182 42.507574,33.31128 43.468,26.519915 c 0.434784,-3.074444 0.869626,-3.811454 1.180947,-2.00158 1.000669,5.817382 2.238611,8.599082 4.939802,11.099908 2.000729,1.852323 4.106445,2.860893 6.823827,3.268387 0.829082,0.12433 1.50711,0.173703 1.506726,0.109719 -3.2e-4,-0.06398 -1.188384,-1.345264 -2.64,-2.847287 C 52.211482,32.974691 50.403014,29.973837 48.921914,25.6 48.043181,23.005017 47.871046,21.979164 47.746022,18.59219 47.587213,14.289989 47.90721,12.156277 49.124454,9.4009654 49.975046,7.4755933 50.776291,6.737136 50.435734,8.19244 50.316352,8.7025981 50.136499,10.776 50.036061,12.8 c -0.219223,4.417679 0.283782,7.00043 1.999107,10.264702 1.946579,3.704347 6.214842,7.454571 8.954627,7.867806 L 62.24,31.121074 60.753082,29.560537 C 57.905722,26.572203 56.822845,23.326399 56.816141,17.76 c -0.0037,-3.089364 0.135533,-4.289351 0.712368,-6.138728 0.723088,-2.3182758 2.522787,-5.1406755 3.11263,-4.8814208 0.175373,0.077082 0.28145,0.2121488 0.235725,0.3001488 -0.837578,1.6119597 -1.984493,5.958553 -1.990048,7.54192 -0.02035,5.797213 2.990851,10.035503 9.471648,13.331441 1.914845,0.973833 3.841536,1.874636 4.281536,2.001786 0.44,0.127149 3.722294,1.376518 7.29399,2.776376 6.744311,2.643306 14.550653,4.848989 20.70601,5.85049 4.67965,0.761398 7.04513,1.554189 10.08772,3.380899 3.17293,1.904963 4.50921,3.123373 7.01598,6.397088 2.42162,3.162518 2.68547,4.051942 2.51593,8.481117 -0.11782,3.078147 -0.25989,3.844141 -0.98456,5.308432 -1.03429,2.089923 -1.14535,1.926633 3.59857,5.290979 6.29006,4.460854 14.69702,14.983802 18.88598,23.639472 2.70089,5.580864 3.57721,8.904614 3.75442,14.24 0.23431,7.05426 -1.00676,13.11573 -3.66909,17.92 -1.2362,2.23078 -5.43738,6.72 -6.28882,6.72 -0.63941,0 -0.67383,-1.0031 -0.0747,-2.17589 1.28819,-2.52149 0.8657,-4.81828 -1.31519,-7.14983 -1.95058,-2.08533 -4.08511,-3.33676 -10.26025,-6.0154 -2.83517,-1.22984 -6.31067,-2.8172 -7.72333,-3.52747 -2.91801,-1.46714 -3.2268,-1.53625 -3.00068,-0.67156 0.30553,1.16834 2.42351,3.26115 5.18009,5.11853 5.67117,3.82122 6.9519,6.1558 4.80552,8.75973 -2.66485,3.23292 -9.19546,4.50166 -16.76762,3.25752 -3.97371,-0.65289 -4.38808,-0.63282 -4.26226,0.20646 0.078,0.52011 0.65516,0.89399 2.43058,1.57446 3.33999,1.28013 4.98357,2.33176 7.408,4.73993 2.47518,2.4586 4.4757,5.35554 5.50248,7.96815 1.28661,3.27372 0.89033,9.70624 -0.69568,11.29225 -0.82569,0.82569 -1.19577,0.78962 -2.88047,-0.28077 z M 89.979315,109.95356 c 9.541255,-2.42033 17.268405,-9.70181 19.482485,-18.358821 2.65261,-10.371597 -3.53903,-20.163603 -14.65005,-23.168873 -2.119529,-0.573284 -3.356105,-0.671079 -8.278016,-0.654672 -6.870265,0.02291 -9.985904,0.61519 -13.872464,2.6372 -6.225532,3.238876 -9.050876,7.559395 -10.438892,15.963155 -1.675037,10.141542 1.893347,17.848781 10.154368,21.932091 3.701404,1.82956 6.103868,2.35837 10.862224,2.39092 2.930908,0.0201 4.359203,-0.13697 6.740345,-0.741 z M 77.35503,95.033133 c -5.392883,-1.365917 -8.885571,-6.229731 -8.480112,-11.809146 0.209847,-2.887632 1.238871,-5.100464 3.261332,-7.013222 2.104547,-1.990394 3.681254,-2.796663 6.392268,-3.268765 6.008871,-1.0464 11.558077,1.60969 13.857799,6.632944 0.705046,1.540026 0.780691,2.075699 0.683251,4.838403 -0.08631,2.447203 -0.26665,3.425559 -0.849574,4.609011 -0.999866,2.02993 -2.995428,3.954877 -5.312532,5.124548 -1.681651,0.848892 -2.316774,0.982528 -5.133276,1.080089 -1.767802,0.06123 -3.756423,-0.02602 -4.419156,-0.193862 z m -0.656694,-3.508819 c -2.913261,-1.84754 -4.522643,-5.744656 -3.766915,-9.1216 0.872416,-3.898368 3.789059,-6.519008 7.644089,-6.868311 1.663181,-0.150701 1.975799,-0.253033 1.392887,-0.455952 -1.993232,-0.693862 -6.563063,1.142989 -8.59961,3.456631 -1.316691,1.49584 -2.33287,3.908518 -2.330371,5.532915 0.0043,2.798512 2.707715,6.725277 5.441584,7.904041 1.769328,0.762884 1.853878,0.589504 0.218336,-0.447724 z M 90.727574,86.057197 C 91.473613,83.811082 90.910518,81.393075 89.130701,79.2 88.824058,78.822157 88.90615,79.14985 89.331107,80 c 0.548147,1.096582 0.723277,2.012362 0.734352,3.84 0.008,1.32 -0.09923,2.808064 -0.238285,3.306813 -0.436169,1.564406 0.324704,0.643638 0.9004,-1.089616 z"
         id="path1310" />
      <path
         style="fill:#b0f27d;stroke-width:0.32"
         d="m 113.89194,153.01099 c -0.79029,-0.50119 -2.01258,-1.58475 -2.7162,-2.40791 -1.17206,-1.37119 -1.45009,-1.52417 -3.31629,-1.82472 -2.56081,-0.4124 -2.72865,-0.50691 -4.67604,-2.63306 -1.38814,-1.51556 -1.83892,-1.79894 -3.353557,-2.10814 -2.299696,-0.46947 -9.7904,-0.99082 -14.286698,-0.99435 -8.206093,-0.006 -12.903155,-1.43349 -12.903155,-3.9202 0,-0.47381 -0.139562,-0.57475 -0.56,-0.40505 -0.308,0.12432 -1.693901,0.45397 -3.079776,0.73256 -5.786502,1.16317 -11.086851,-1.17051 -13.329053,-5.86862 -0.819641,-1.7174 -1.116445,-2.0615 -1.778157,-2.0615 -0.436857,0 -1.509523,-0.36244 -2.383692,-0.80541 -1.493789,-0.75696 -1.694868,-1.0157 -3.342573,-4.30113 -0.964243,-1.92265 -2.194938,-3.99887 -2.734871,-4.61382 -1.413027,-1.60935 -3.307539,-2.25035 -5.84719,-1.97838 -1.708134,0.18293 -2.218592,0.11596 -3.132669,-0.41099 -2.624086,-1.51274 -5.728908,-1.24263 -8.857347,0.77055 -1.18507,0.76261 -2.270868,1.2705 -2.412885,1.12866 -0.142017,-0.14185 -0.342082,-3.33851 -0.444588,-7.10369 C 24.575082,108.25096 24.64367,106.652 25.264208,101.92 26.166721,95.037763 27.076804,91.178093 29.076344,85.752707 31.28566,79.758131 33.674093,75.472038 37.096698,71.36 c 1.636,-1.965549 3.387785,-3.621389 8.405817,-7.945418 3.45601,-2.978041 4.737853,-4.325014 4.73704,-4.977737 -2.43e-4,-0.196266 -0.834438,-0.601898 -1.853766,-0.901408 C 44.97111,56.532096 42.24,53.70104 42.24,51.164736 v -1.020762 l 0.97984,1.352631 c 1.799786,2.484531 4.666432,2.866589 6.886042,0.917747 C 51.314224,51.353411 51.581926,50.011309 50.64,49.736579 48.983523,49.253434 44.453094,46.732 43.228176,45.611488 41.91904,44.413936 40,41.804694 40,41.222262 c 0,-0.138838 0.713898,0.287895 1.586442,0.948295 2.707353,2.049123 8.318233,3.812528 11.243001,3.533488 0.838071,-0.07995 1.113632,-0.266167 1.190224,-0.804288 0.07942,-0.557949 -0.356611,-1.000842 -2.145725,-2.179514 C 46.679184,39.297923 44.153187,34.879258 44.190621,29.28 l 0.01498,-2.24 0.563638,1.969539 c 1.743898,6.093754 5.60592,9.630829 11.668307,10.686551 3.549767,0.618163 4.119306,-0.232256 1.443152,-2.15488 C 55.86576,36.093626 52.781898,32.248448 51.32913,29.372262 49.030909,24.822248 47.729056,17.567831 48.556115,13.92 c 0.277274,-1.222941 0.300957,-1.161163 0.531296,1.385861 0.506448,5.600215 1.929783,8.84372 5.408675,12.325352 1.267152,1.268148 3.063127,2.708649 3.991053,3.201113 2.007888,1.065614 4.994416,1.506375 5.273799,0.77832 0.243449,-0.63442 -0.05484,-1.026021 -1.24642,-1.636363 C 60.56935,28.977949 58.78927,26.05683 57.929475,22.450208 57.457491,20.470359 57.380429,15.850389 57.784515,13.76 c 0.257168,-1.330349 0.292551,-1.196332 0.464647,1.76 0.169286,2.908008 0.297987,3.41209 1.41048,5.524341 2.036176,3.866023 5.522675,6.620933 11.380358,8.992369 11.950605,4.838106 16.803133,6.495613 23.68,8.088516 L 99.36,39.2 l 2.03838,1.92 c 2.4241,2.283312 5.58665,6.277267 6.92162,8.741238 1.03414,1.90874 2.52121,3.268474 3.02052,2.761892 0.40885,-0.4148 1.08815,-5.746608 0.85201,-6.687437 -0.19622,-0.781824 -2.59791,-2.722336 -5.66749,-4.579223 -2.4685,-1.493273 -0.59599,-1.036902 2.75496,0.671444 4.05369,2.066604 9.2903,7.542064 10.11932,10.580867 0.75739,2.776259 -0.13054,8.900221 -1.51703,10.462873 -0.48509,0.546717 -0.40654,0.615072 6.13241,5.336656 2.37887,1.717709 5.15777,4.64785 9.17246,9.67169 5.5931,6.998989 9.26194,13.574061 11.15237,19.986573 0.96245,3.264727 1.03401,3.838547 1.03764,8.319997 0.006,7.27156 -1.31816,12.87868 -4.13685,17.51875 -1.41748,2.33343 -4.71591,5.69468 -5.58824,5.69468 -0.7673,0 -0.76482,-0.23351 0.0209,-1.96506 0.76534,-1.68666 0.81719,-3.40751 0.15081,-5.00522 -1.15757,-2.77534 -4.22375,-4.8721 -12.24178,-8.37133 -3.18575,-1.39033 -6.811,-3.0632 -8.05612,-3.71748 -1.24511,-0.65429 -2.33881,-1.11465 -2.43044,-1.02303 -0.32884,0.32884 0.24856,1.77395 1.14172,2.85751 0.50052,0.60722 1.96591,1.8045 3.25644,2.66062 3.65482,2.4246 4.77183,3.38188 5.75482,4.93188 1.18811,1.87347 1.15014,2.5182 -0.24431,4.14731 -1.30414,1.52359 -3.2921,2.63011 -5.88412,3.27517 -2.47676,0.61637 -7.88952,0.54174 -11.61317,-0.16012 -1.72325,-0.32481 -3.18136,-0.5365 -3.24025,-0.47041 -0.0589,0.0661 -0.20021,0.42382 -0.31404,0.79496 -0.1849,0.60281 0.0774,0.78214 2.45942,1.68116 1.46652,0.55349 3.36955,1.45228 4.22895,1.9973 3.38612,2.14741 7.34471,6.97203 8.8379,10.77137 1.1797,3.00169 0.93354,9.27339 -0.43226,11.01294 -0.74922,0.95425 -1.64247,0.95239 -3.1546,-0.007 z M 88.8,110.4342 c 5.840458,-1.21148 10.16352,-3.57124 14.4,-7.86032 3.25891,-3.299362 4.94156,-5.935237 6.07989,-9.52412 C 112.73621,82.152714 107.1307,72.004858 95.68,68.429395 93.475568,67.741066 92.719373,67.680058 86.4,67.68071 c -7.852058,9.6e-4 -9.170813,0.239533 -13.76,2.49089 -3.681347,1.805987 -6.81081,4.865843 -8.415578,8.2284 -1.26688,2.654566 -2.311388,7.219034 -2.636172,11.52 -0.500685,6.6304 2.038697,12.15358 7.713001,16.77583 4.532333,3.69202 12.426096,5.20544 19.498749,3.73837 z M 78.166304,95.042461 c -3.43063,-0.727171 -6.518493,-3.004327 -8.013546,-5.909613 -1.211571,-2.354406 -1.384316,-6.60081 -0.377264,-9.273933 0.893716,-2.372288 3.125533,-4.68664 5.669053,-5.878701 1.675527,-0.78526 2.170039,-0.859737 5.675453,-0.854748 3.681587,0.0052 3.919206,0.04702 5.76,1.012665 3.838733,2.013728 5.902861,5.113779 6.171901,9.269392 0.304029,4.696071 -1.773936,8.293824 -6.025783,10.432941 -2.00808,1.010272 -2.791705,1.223315 -4.946118,1.344698 -1.408,0.07933 -3.169162,0.0151 -3.913696,-0.142701 z M 85.28,92.175795 c 1.056,-0.502701 2.4656,-1.429696 3.132445,-2.059987 1.501833,-1.419507 2.780285,-4.091171 2.784429,-5.818803 C 91.20689,80.124979 87.632128,76.09433 82.958426,75.007891 77.414342,73.719126 70.941066,78.556093 70.924355,84 c -0.01222,3.978611 3.734227,8.204288 8.115645,9.153782 1.776963,0.385085 4.161846,0.0113 6.24,-0.977987 z M 77.84751,91.676086 C 71.636358,88.534845 71.626317,79.756477 77.830326,76.66488 81.85632,74.658643 86.855635,76.356995 89.060611,80.48 c 0.966339,1.806925 0.965139,5.550218 -0.0022,7.376931 -1.545552,2.918099 -3.884397,4.376435 -7.298256,4.550679 -1.922758,0.09813 -2.476867,-0.0055 -3.912489,-0.731524 z M 102.4,44.208384 c 0,-0.149389 -0.684,-0.949248 -1.52,-1.777469 -2.050246,-2.031161 -5.356602,-3.615696 -8.4,-4.025606 -1.32,-0.177789 -3.575344,-0.488951 -5.011878,-0.691472 -2.600253,-0.366579 -3.432116,-0.251306 -5.906068,0.818406 -0.358268,0.154912 -0.568115,0.0321 -0.680684,-0.398365 -0.142103,-0.543398 -0.331668,-0.59143 -1.49474,-0.378748 -1.83902,0.336288 -1.948492,0.58584 -0.367875,0.838588 0.739309,0.118221 1.515959,0.386711 1.725888,0.59664 0.209933,0.209933 0.812269,0.486893 1.338525,0.615472 0.526259,0.12858 1.935683,0.821527 3.132058,1.539888 l 2.175225,1.306109 3.904775,-0.205977 c 4.23376,-0.223332 6.992809,0.165011 9.564474,1.346227 0.75917,0.348697 1.4163,0.646131 1.4603,0.66096 0.044,0.01482 0.08,-0.09526 0.08,-0.244653 z"
         id="path1308" />
      <path
         style="fill:#6092bf;stroke-width:0.32"
         d="m 113.89194,153.01099 c -0.79029,-0.50119 -2.01258,-1.58475 -2.7162,-2.40791 -1.17206,-1.37119 -1.45009,-1.52417 -3.31629,-1.82472 -2.56081,-0.4124 -2.72865,-0.50691 -4.67604,-2.63306 -1.38814,-1.51556 -1.83892,-1.79894 -3.353557,-2.10814 -2.299696,-0.46947 -9.7904,-0.99082 -14.286698,-0.99435 -8.206093,-0.006 -12.903155,-1.43349 -12.903155,-3.9202 0,-0.47381 -0.139562,-0.57475 -0.56,-0.40505 -0.308,0.12432 -1.693901,0.45397 -3.079776,0.73256 -5.786502,1.16317 -11.086851,-1.17051 -13.329053,-5.86862 -0.819641,-1.7174 -1.116445,-2.0615 -1.778157,-2.0615 -0.436857,0 -1.509523,-0.36244 -2.383692,-0.80541 -1.493789,-0.75696 -1.694868,-1.0157 -3.342573,-4.30113 -0.964243,-1.92265 -2.194938,-3.99887 -2.734871,-4.61382 -1.420307,-1.61764 -3.305107,-2.25061 -5.880435,-1.97482 -1.862592,0.19947 -2.176416,0.14635 -3.080086,-0.52136 -0.881632,-0.65143 -1.369213,-0.74305 -3.938771,-0.74015 l -2.932586,0.003 -1.966666,1.39617 c -1.081666,0.7679 -2.106482,1.30977 -2.277369,1.20416 -0.171753,-0.10615 -0.411769,-3.0933 -0.536694,-6.67949 -0.206453,-5.92659 -0.154519,-7.02698 0.600685,-12.72748 0.940967,-7.102704 1.690846,-10.264128 3.827792,-16.137632 1.630936,-4.482707 2.907535,-7.012851 5.42013,-10.742368 2.524852,-3.747712 3.893194,-5.235798 8.532122,-9.278742 2.376,-2.070746 5.454707,-4.970154 6.841571,-6.443127 5.603437,-5.951347 6.095927,-6.392739 8.358429,-7.491235 1.232,-0.59816 4.04,-1.655805 6.24,-2.350317 9.001667,-2.841712 13.746474,-3.118435 20.396122,-1.189523 3.953491,1.146819 5.624176,1.854938 7.847078,3.325987 1.18911,0.786915 1.268813,0.796026 3.417232,0.39065 2.481142,-0.468157 4.254548,-0.283578 6.401988,0.666339 1.85429,0.820237 2.68253,1.61224 4.06368,3.885859 0.6139,1.010589 1.36901,2.018938 1.67802,2.240771 0.30901,0.221837 1.29533,1.494804 2.19182,2.82882 0.89649,1.334016 2.02112,2.681763 2.49918,2.994995 0.80577,0.527961 0.98059,0.533536 2.39608,0.07638 1.9694,-0.636045 2.56392,-0.463808 5.2688,1.526377 1.232,0.906474 2.96799,2.172781 3.85776,2.814013 1.78632,1.287357 4.8176,4.557936 8.5294,9.202749 5.5931,6.998989 9.26194,13.574061 11.15237,19.986573 0.96245,3.264731 1.03401,3.838551 1.03764,8.320001 0.006,7.27156 -1.31816,12.87868 -4.13685,17.51875 -1.41748,2.33343 -4.71591,5.69468 -5.58824,5.69468 -0.7673,0 -0.76482,-0.23351 0.0209,-1.96506 0.76534,-1.68666 0.81719,-3.40751 0.15081,-5.00522 -1.15757,-2.77534 -4.22375,-4.8721 -12.24178,-8.37133 -3.18575,-1.39033 -6.811,-3.0632 -8.05612,-3.71748 -1.24511,-0.65429 -2.33881,-1.11465 -2.43044,-1.02303 -0.32884,0.32884 0.24856,1.77395 1.14172,2.85751 0.50052,0.60722 1.96591,1.8045 3.25644,2.66062 3.65482,2.4246 4.77183,3.38188 5.75482,4.93188 1.18811,1.87347 1.15014,2.5182 -0.24431,4.14731 -1.30247,1.52163 -3.28718,2.6274 -5.88412,3.27829 -2.40216,0.60208 -8.16328,0.52113 -11.62604,-0.16336 -3.06645,-0.60614 -3.73396,-0.53511 -3.73396,0.39735 0,0.46749 0.61307,0.83895 2.65918,1.6112 1.46254,0.552 3.36232,1.44956 4.22173,1.99458 3.38611,2.14741 7.34471,6.97203 8.83789,10.77137 1.17971,3.00169 0.93354,9.27339 -0.43226,11.01294 -0.74921,0.95425 -1.64246,0.95239 -3.1546,-0.007 z M 86.24,111.00847 c 3.644134,-0.44251 7.956886,-1.82554 11.031894,-3.53775 2.861186,-1.59315 8.542596,-7.12951 10.190756,-9.930586 1.79467,-3.05006 2.69439,-6.098624 2.86386,-9.703734 0.18714,-3.98119 -0.24615,-6.166054 -1.85833,-9.370538 -2.28879,-4.549379 -6.03459,-7.804025 -11.1161,-9.658547 -3.643491,-1.329709 -7.04783,-1.735721 -12.631754,-1.506509 -5.659667,0.232327 -8.052563,0.762679 -12.018867,2.663818 -3.557033,1.70497 -6.70343,4.605424 -8.294998,7.646611 -2.723923,5.204906 -3.800458,15.110816 -2.154909,19.828765 1.226416,3.51625 5.348621,8.40407 9.088195,10.77613 2.424611,1.53797 6.726743,2.69417 11.540253,3.10145 0.264,0.0223 1.776,-0.11676 3.36,-0.30911 z M 78.166304,95.042461 c -3.43063,-0.727171 -6.518493,-3.004327 -8.013546,-5.909613 -1.211571,-2.354406 -1.384316,-6.60081 -0.377264,-9.273933 0.893716,-2.372288 3.125533,-4.68664 5.669053,-5.878701 1.675527,-0.78526 2.170039,-0.859737 5.675453,-0.854748 3.681587,0.0052 3.919206,0.04702 5.76,1.012665 3.838733,2.013728 5.902861,5.113779 6.171901,9.269392 0.304029,4.696071 -1.773936,8.293824 -6.025783,10.432941 -2.00808,1.010272 -2.791705,1.223315 -4.946118,1.344698 -1.408,0.07933 -3.169162,0.0151 -3.913696,-0.142701 z m 7.12545,-2.686682 c 0.889596,-0.40727 2.144134,-1.202928 2.787862,-1.768128 C 89.617802,89.237107 91.2,86.062067 91.2,84.325894 91.2,80.11639 87.645277,76.097386 82.958426,75.007891 77.414342,73.719126 70.941066,78.556093 70.924355,84 c -0.01222,3.978051 3.726938,8.19649 8.115645,9.155914 1.710378,0.37391 4.454426,0.02272 6.251754,-0.800135 z M 78.178256,91.512474 C 76.212528,90.514346 74.372752,88.363539 73.781421,86.37231 73.505638,85.443651 73.28,84.448112 73.28,84.16 c 0,-1.460278 1.099946,-4.006122 2.287501,-5.294467 1.915757,-2.078352 3.646102,-2.804109 6.324685,-2.652755 7.967974,0.45023 10.53727,10.629996 3.738979,14.814144 -2.11632,1.302534 -5.420048,1.517769 -7.452909,0.485552 z"
         id="path1306" />
      <path
         style="fill:#be372e;stroke-width:0.32"
         d="m 114.04466,152.46083 c -0.68456,-0.45055 -1.89266,-1.5375 -2.68466,-2.41544 -1.34459,-1.4905 -1.5767,-1.61543 -3.50307,-1.88544 -2.26051,-0.31685 -3.31,-0.92921 -4.43777,-2.58937 -0.40746,-0.59982 -1.08931,-1.27405 -1.51521,-1.49829 -1.34189,-0.70651 -6.779489,-1.29938 -13.90395,-1.51595 -11.497613,-0.34952 -14.182717,-0.97414 -14.695414,-3.4185 -0.257114,-1.22583 -0.45049,-1.2486 -3.544586,-0.41743 -3.540458,0.95108 -7.837264,0.28244 -10.637542,-1.65535 -1.41264,-0.97754 -2.997674,-3.25326 -3.458903,-4.96613 -0.304006,-1.12899 -0.414304,-1.21893 -1.494857,-1.21893 -0.641648,0 -1.753274,-0.28399 -2.470279,-0.63108 -1.155779,-0.55951 -1.493299,-1.01243 -2.975753,-3.99324 -0.919664,-1.84919 -2.203668,-3.95052 -2.853341,-4.66964 -1.831869,-2.02766 -2.70713,-2.36324 -6.001325,-2.30097 -1.886403,0.0357 -3.383997,-0.12009 -4.423312,-0.46004 -1.128355,-0.36906 -2.192749,-0.46185 -3.77578,-0.32913 -1.921873,0.16112 -2.447896,0.35648 -4.103356,1.52394 -1.044386,0.73652 -2.0387,1.25272 -2.209587,1.14711 -0.171753,-0.10615 -0.411769,-3.0933 -0.536694,-6.67949 -0.206453,-5.92657 -0.154519,-7.02696 0.600685,-12.72746 0.940967,-7.102704 1.690846,-10.264128 3.827792,-16.137632 1.630936,-4.482707 2.907535,-7.012851 5.42013,-10.742368 2.524852,-3.747712 3.893194,-5.235798 8.532122,-9.278742 2.376,-2.070746 5.454707,-4.970154 6.841571,-6.443127 5.603437,-5.951347 6.095927,-6.392739 8.358429,-7.491235 1.232,-0.59816 4.04,-1.655805 6.24,-2.350317 9.001667,-2.841712 13.746474,-3.118435 20.396122,-1.189523 3.953491,1.146819 5.624176,1.854938 7.847078,3.325987 1.18911,0.786915 1.268813,0.796026 3.417232,0.39065 2.481142,-0.468157 4.254548,-0.283578 6.401988,0.666339 1.85429,0.820237 2.68253,1.61224 4.06368,3.885859 0.6139,1.010589 1.36901,2.018938 1.67802,2.240771 0.30901,0.221837 1.29533,1.494804 2.19182,2.82882 0.89649,1.334016 2.02112,2.681763 2.49918,2.994995 0.81057,0.53111 0.97461,0.535465 2.43265,0.06458 1.76086,-0.568695 2.75008,-0.356067 4.11223,0.883907 0.44,0.400531 1.9713,1.54152 3.40289,2.535526 2.94811,2.046989 6.11563,5.291437 9.92811,10.169239 5.79422,7.413305 9.36527,13.738755 11.18167,19.806275 0.84848,2.834276 0.91037,3.418956 0.91449,8.639996 0.004,5.69937 -0.22694,7.51123 -1.47146,11.52 -1.37638,4.43351 -4.05001,8.6194 -6.76289,10.58814 -1.56221,1.13369 -1.93429,0.74109 -0.99194,-1.04666 0.86498,-1.64096 0.74554,-4.0024 -0.29198,-5.7728 -1.60977,-2.74685 -4.06466,-4.31048 -12.71943,-8.10152 -3.39274,-1.48611 -6.93612,-3.13518 -7.87419,-3.66459 -2.1372,-1.20616 -2.48733,-1.21925 -2.20974,-0.0826 0.41736,1.70902 1.87163,3.26675 5.18766,5.55673 5.99133,4.13749 7.08198,6.27156 4.53605,8.8756 -2.94947,3.01679 -9.05129,3.97762 -16.84152,2.65195 -3.4964,-0.59499 -3.74992,-0.53866 -3.9565,0.87906 -0.10062,0.6906 0.16983,0.87646 2.83838,1.95059 3.51191,1.4136 4.89558,2.28919 7.19142,4.55077 3.39056,3.33996 5.6182,7.59392 5.93424,11.33222 0.19925,2.35678 -0.40761,6.14871 -1.10797,6.92308 -0.67601,0.74745 -1.05184,0.70883 -2.52263,-0.25917 z M 86.24,111.00673 c 7.6756,-0.9367 14.47989,-4.66507 19.0923,-10.4615 3.42036,-4.298366 5.05419,-8.763924 5.06297,-13.837998 0.0171,-9.900272 -7.30226,-17.60792 -18.239676,-19.207181 -3.385469,-0.495021 -11.334692,-0.208627 -14.326189,0.516141 -3.772567,0.914003 -7.821866,3.092694 -10.25937,5.519962 -3.281635,3.267856 -4.832925,6.789075 -5.828841,13.230665 -0.824256,5.331299 0.340873,12.540458 2.544374,15.743141 1.448054,2.10467 4.895238,5.16255 6.469926,5.73924 6.360384,2.32936 7.852151,2.70689 12.124506,3.06838 0.264,0.0223 1.776,-0.11754 3.36,-0.31085 z M 77.486966,94.715904 C 74.60167,94.107357 71.35431,91.396499 70.016928,88.48 69.425462,87.190166 69.282922,86.321702 69.281616,84 c -0.0013,-2.508522 0.113971,-3.115379 0.894499,-4.704835 1.123856,-2.288599 3.514237,-4.474282 5.919363,-5.412471 1.432996,-0.558979 2.511216,-0.715974 5.024522,-0.731609 2.93105,-0.01824 3.37609,0.06307 5.295158,0.967347 2.672148,1.259139 4.102602,2.524266 5.268436,4.659536 0.787638,1.442582 0.949152,2.148192 1.059571,4.628906 0.169072,3.798505 -0.402266,5.593488 -2.516835,7.907161 -2.231722,2.441863 -4.650823,3.471744 -8.45354,3.598928 -1.591033,0.05321 -3.519657,-0.03547 -4.285824,-0.197059 z M 84.8,92.705091 c 2.642966,-0.97472 5.436627,-3.905299 6.217514,-6.522233 0.506073,-1.695975 0.535244,-2.196557 0.205136,-3.52 -0.802477,-3.217204 -2.829383,-5.583818 -6.088048,-7.108404 -2.556656,-1.196147 -5.854077,-1.169628 -8.39545,0.06751 C 73.28223,77.3048 70.72,81.009882 70.72,84.325894 c 0,2.933162 2.705962,6.609728 6.006707,8.161261 2.901587,1.363907 4.825175,1.415834 8.073293,0.217936 z M 78.178256,91.512474 C 76.212528,90.514346 74.372752,88.363539 73.781421,86.37231 73.505638,85.443651 73.28,84.448112 73.28,84.16 c 0,-1.460278 1.099946,-4.006122 2.287501,-5.294467 1.915757,-2.078352 3.646102,-2.804109 6.324685,-2.652755 7.967974,0.45023 10.53727,10.629996 3.738979,14.814144 -2.11632,1.302534 -5.420048,1.517769 -7.452909,0.485552 z"
         id="path1304" />
      <path
         style="fill:#605a60;stroke-width:0.32"
         d="m 114.04466,152.46083 c -0.68456,-0.45055 -1.89266,-1.5375 -2.68466,-2.41544 -1.34459,-1.4905 -1.5767,-1.61543 -3.50307,-1.88544 -2.26051,-0.31685 -3.31,-0.92921 -4.43777,-2.58937 -0.40746,-0.59982 -1.08931,-1.27405 -1.51521,-1.49829 -1.34189,-0.70651 -6.779489,-1.29938 -13.90395,-1.51595 -11.497613,-0.34952 -14.182717,-0.97414 -14.695414,-3.4185 -0.257114,-1.22583 -0.45049,-1.2486 -3.544586,-0.41743 -3.540458,0.95108 -7.837264,0.28244 -10.637542,-1.65535 -1.41264,-0.97754 -2.997674,-3.25326 -3.458903,-4.96613 -0.304006,-1.12899 -0.414304,-1.21893 -1.494857,-1.21893 -0.641648,0 -1.753274,-0.28399 -2.470279,-0.63108 -1.155779,-0.55951 -1.493299,-1.01243 -2.975753,-3.99324 -0.919664,-1.84919 -2.203668,-3.95052 -2.853341,-4.66964 -1.84016,-2.03683 -2.702263,-2.36434 -6.050999,-2.29874 l -2.90167,0.0568 0.08297,-1.40841 c 0.132122,-2.24288 0.664749,-3.76954 1.963888,-5.62909 1.015677,-1.45381 1.675114,-1.97683 4.083876,-3.239 1.579939,-0.82788 4.024614,-1.81203 5.432614,-2.187 3.347376,-0.89147 3.703309,-1.28064 1.171251,-1.28064 -2.519257,0 -4.236947,-0.81347 -4.967216,-2.3524 -0.288221,-0.60738 -0.523497,-1.37056 -0.522838,-1.69596 0.0022,-1.04992 1.261565,-2.697093 2.438086,-3.188677 1.073616,-0.448585 1.132391,-0.54719 0.939383,-1.576003 -0.286538,-1.527376 0.343286,-3.598144 1.422668,-4.677526 1.239991,-1.239988 3.336714,-1.25641 5.767354,-0.04517 1.958378,0.975901 8.311312,7.06986 8.311312,7.972506 0,1.64426 5.523114,7.64385 7.378374,8.0149 0.517895,0.10358 0.941626,0.33349 0.941626,0.5109 0,0.17741 2.483914,2.83227 5.519808,5.89969 5.761744,5.82157 8.548131,8.00998 13.680192,10.74435 2.865754,1.52688 5.473184,2.29208 9.028003,2.64944 1.181393,0.11877 2.117393,0.35868 2.079993,0.53313 -0.0374,0.17446 1.25932,0.85603 2.8816,1.5146 3.51948,1.42875 4.90174,2.30541 7.19142,4.56092 3.39056,3.33996 5.6182,7.59392 5.93424,11.33222 0.19925,2.35678 -0.40761,6.14871 -1.10797,6.92308 -0.67601,0.74745 -1.05184,0.70883 -2.52263,-0.25917 z m 21.40516,-23.54605 c 0.0978,-0.41513 0.41379,-1.39281 0.70231,-2.17263 0.66039,-1.7849 0.42522,-3.33105 -0.80065,-5.26405 -1.59922,-2.5217 -4.04844,-4.03678 -12.5352,-7.75423 -3.36349,-1.4733 -6.88294,-3.11189 -7.82101,-3.6413 -2.1372,-1.20616 -2.48733,-1.21925 -2.20974,-0.0826 0.41736,1.70902 1.87163,3.26675 5.18766,5.55673 5.99133,4.13749 7.08198,6.27156 4.53605,8.8756 -2.86823,2.9337 -8.73934,3.94553 -16.05916,2.76765 -1.64067,-0.26401 -3.40312,-0.53058 -3.91656,-0.59239 -1.54068,-0.18545 -4.144755,-1.46344 -5.193667,-2.54886 -1.3332,-1.37961 -1.770826,-3.42381 -1.333991,-6.2312 0.407661,-2.61986 1.696727,-6.65282 2.889431,-9.03981 0.487049,-0.97475 0.934857,-2.05368 0.995126,-2.39762 0.06027,-0.34394 0.941991,-1.32656 1.959381,-2.18361 4.0052,-3.37395 7.1895,-8.570509 8.10114,-13.220471 0.27022,-1.37831 0.64594,-3.250083 0.83493,-4.159491 0.39715,-1.911046 0.16332,-4.207968 -0.72279,-7.100237 -1.08872,-3.553545 -0.63974,-7.263974 1.31897,-10.900227 1.34757,-2.501696 2.57648,-3.745126 4.26947,-4.319907 1.64934,-0.559968 2.67378,-0.330387 4.02848,0.902803 0.44,0.400531 1.9713,1.54152 3.40289,2.535526 5.67943,3.943453 14.55156,15.166637 18.51038,23.415514 2.47373,5.154442 3.41663,8.70933 3.609,13.60655 0.30847,7.85317 -1.26253,14.54413 -4.59158,19.55581 -1.40608,2.11677 -3.27638,4.04354 -4.62633,4.76601 -0.656,0.35108 -0.69823,0.32157 -0.53454,-0.37359 z M 77.486966,94.715904 C 74.60167,94.107357 71.35431,91.396499 70.016928,88.48 69.425462,87.190166 69.282922,86.321702 69.281616,84 c -0.0013,-2.508522 0.113971,-3.115379 0.894499,-4.704835 1.123856,-2.288599 3.514237,-4.474282 5.919363,-5.412471 1.432996,-0.558979 2.511216,-0.715974 5.024522,-0.731609 2.93105,-0.01824 3.37609,0.06307 5.295158,0.967347 2.672148,1.259139 4.102602,2.524266 5.268436,4.659536 0.787638,1.442582 0.949152,2.148192 1.059571,4.628906 0.169072,3.798505 -0.402266,5.593488 -2.516835,7.907161 -2.231722,2.441863 -4.650823,3.471744 -8.45354,3.598928 -1.591033,0.05321 -3.519657,-0.03547 -4.285824,-0.197059 z M 84.8,92.705091 c 2.642966,-0.97472 5.436627,-3.905299 6.217514,-6.522233 0.506073,-1.695975 0.535244,-2.196557 0.205136,-3.52 -0.802477,-3.217204 -2.829383,-5.583818 -6.088048,-7.108404 -2.556656,-1.196147 -5.854077,-1.169628 -8.39545,0.06751 C 73.28223,77.3048 70.72,81.009882 70.72,84.325894 c 0,2.933162 2.705962,6.609728 6.006707,8.161261 2.901587,1.363907 4.825175,1.415834 8.073293,0.217936 z M 78.178256,91.512474 C 76.212528,90.514346 74.372752,88.363539 73.781421,86.37231 73.505638,85.443651 73.28,84.448112 73.28,84.16 c 0,-1.460278 1.099946,-4.006122 2.287501,-5.294467 1.915757,-2.078352 3.646102,-2.804109 6.324685,-2.652755 7.967974,0.45023 10.53727,10.629996 3.738979,14.814144 -2.11632,1.302534 -5.420048,1.517769 -7.452909,0.485552 z"
         id="path1302" />
      <path
         style="fill:#03539b;stroke-width:0.32"
         d="m 114.04466,152.46083 c -0.68456,-0.45055 -1.89266,-1.5375 -2.68466,-2.41544 -1.34459,-1.4905 -1.5767,-1.61543 -3.50307,-1.88544 -2.26051,-0.31685 -3.31,-0.92921 -4.43777,-2.58937 -0.40746,-0.59982 -1.08931,-1.27405 -1.51521,-1.49829 -1.34189,-0.70651 -6.779489,-1.29938 -13.90395,-1.51595 -11.497613,-0.34952 -14.182717,-0.97414 -14.695414,-3.4185 -0.257114,-1.22583 -0.45049,-1.2486 -3.544586,-0.41743 -3.540458,0.95108 -7.837264,0.28244 -10.637542,-1.65535 -1.41264,-0.97754 -2.997674,-3.25326 -3.458903,-4.96613 -0.304006,-1.12899 -0.414304,-1.21893 -1.494857,-1.21893 -0.641648,0 -1.753274,-0.28399 -2.470279,-0.63108 -1.155779,-0.55951 -1.493299,-1.01243 -2.975753,-3.99324 -1.756557,-3.53195 -3.374263,-5.62687 -5.018618,-6.49908 -0.68928,-0.36561 -1.727018,-0.51084 -3.464358,-0.48481 -2.376372,0.0356 -2.488525,0.004 -2.676336,-0.74388 -0.471668,-1.87927 1.18318,-5.64202 3.297971,-7.49883 1.542893,-1.35467 5.103408,-2.99994 7.89144,-3.64653 2.574419,-0.59705 6.721155,-2.26866 7.270835,-2.93099 0.691693,-0.83344 0.0094,-0.90116 -2.02792,-0.20128 -2.891453,0.99332 -4.176182,1.14621 -5.985043,0.71227 -3.729392,-0.89467 -4.374762,-4.69195 -1.040343,-6.121254 l 1.389757,-0.595718 -0.218374,-1.456215 c -0.156099,-1.040944 -0.06226,-1.864976 0.329046,-2.889603 0.991226,-2.595491 3.180237,-2.976173 6.432608,-1.118666 1.916355,1.094474 6.734925,5.919501 8.627597,8.639166 0.755274,1.08528 5.309792,5.8639 10.121149,10.61914 6.912022,6.83142 9.419497,9.09544 11.947923,10.78788 5.241587,3.50853 7.470566,4.48822 11.862672,5.21391 4.075658,0.6734 8.643388,2.22452 11.055538,3.75426 4.73631,3.00368 8.74554,9.13393 9.15705,14.00147 0.19925,2.35678 -0.40761,6.14871 -1.10797,6.92308 -0.67601,0.74745 -1.05184,0.70883 -2.52263,-0.25917 z M 136,128.51908 c 0,-0.0665 0.216,-0.63788 0.48,-1.26972 1.06057,-2.53829 0.30239,-5.15497 -2.1932,-7.56936 -1.93162,-1.86877 -4.5374,-3.33177 -10.88134,-6.10927 -2.841,-1.24385 -6.37893,-2.89086 -7.86206,-3.66004 -1.48313,-0.76917 -2.81513,-1.32524 -2.96,-1.23571 -0.44215,0.27327 -0.29567,1.36725 0.35343,2.6396 0.72896,1.42888 2.56653,3.15332 5.05962,4.74813 3.29129,2.10541 5.52355,4.55092 5.52355,6.05119 0,0.95643 -1.58675,2.6686 -3.2579,3.51544 -2.05231,1.03998 -5.23182,1.71798 -8.09004,1.7251 -2.15721,0.005 -9.66394,-1.00555 -12.07764,-1.62649 -1.506673,-0.3876 -3.096311,-1.71858 -3.65793,-3.06273 -1.15081,-2.75427 0.05421,-9.17235 2.693648,-14.34665 0.682214,-1.33741 1.710522,-2.57647 3.394732,-4.09048 5.1909,-4.666359 7.7484,-9.341335 8.55621,-15.640336 0.39701,-3.095642 0.0246,-6.741092 -0.90995,-8.907754 -0.30651,-0.710621 -0.48164,-2.114205 -0.47912,-3.84 0.007,-4.800006 2.20487,-9.216973 5.24731,-10.545366 1.92592,-0.840893 2.83698,-0.825885 3.96834,0.06537 0.50269,0.396 2.26617,1.674886 3.91886,2.841968 3.46077,2.443901 6.58217,5.760419 11.21047,11.911235 5.20355,6.915306 8.14109,12.330919 9.74553,17.966797 2.74652,9.647606 0.35743,22.464086 -5.31854,28.531716 C 136.83623,128.35179 136,128.99911 136,128.51908 Z M 77.831206,94.401402 c -5.180848,-1.101543 -8.818486,-6.0657 -8.272518,-11.289229 0.391933,-3.749827 2.435178,-6.74016 5.801312,-8.490346 1.373693,-0.714237 2.097875,-0.849427 5.12,-0.955795 4.21184,-0.148246 6.243734,0.451542 8.622218,2.545168 2.219072,1.953306 3.141852,3.993872 3.305168,7.3088 0.170937,3.469571 -0.6017,5.743789 -2.64585,7.787939 -2.120253,2.120253 -4.507312,3.115965 -7.822515,3.263005 -1.506461,0.06682 -3.354979,-0.0095 -4.107815,-0.169542 z m 7.827936,-1.63168 c 3.362983,-1.613044 6.177626,-5.574628 6.182442,-8.701725 0.0047,-3.026807 -2.94457,-7.106051 -6.344762,-8.775802 C 83.941482,74.528406 83.288531,74.4 80.96,74.4 c -2.486448,0 -2.892234,0.0934 -4.725869,1.087712 -2.412269,1.30809 -4.023069,3.013926 -5.13079,5.43351 -1.477677,3.227668 -0.800122,6.274304 2.080179,9.353578 3.478675,3.718989 8.027162,4.628611 12.475622,2.494922 z M 79.84,91.556915 C 77.429094,90.929459 75.656832,89.405859 74.585891,87.04 c -1.811939,-4.002835 0.533715,-8.814538 4.918378,-10.089194 1.964048,-0.570966 3.479619,-0.41438 5.416147,0.559581 5.436384,2.734186 5.390093,10.558362 -0.07898,13.348474 -1.50968,0.770179 -3.602154,1.062227 -5.00144,0.698054 z"
         id="path1300" />
      <path
         style="fill:#040303;stroke-width:0.32"
         d="m 136,128.51908 c 0,-0.0665 0.216,-0.63788 0.48,-1.26972 1.06057,-2.53829 0.30239,-5.15497 -2.1932,-7.56936 -1.93162,-1.86877 -4.5374,-3.33177 -10.88134,-6.10927 -2.841,-1.24385 -6.37893,-2.89086 -7.86206,-3.66004 -1.48313,-0.76917 -2.81513,-1.32524 -2.96,-1.23571 -0.44215,0.27327 -0.29567,1.36725 0.35343,2.6396 0.72896,1.42888 2.56653,3.15332 5.05962,4.74813 3.29129,2.10541 5.52355,4.55092 5.52355,6.05119 0,0.95643 -1.58675,2.6686 -3.2579,3.51544 -2.05231,1.03998 -5.23182,1.71798 -8.09004,1.7251 -2.15721,0.005 -9.66394,-1.00555 -12.07764,-1.62649 -1.506673,-0.3876 -3.096311,-1.71858 -3.65793,-3.06273 -1.15081,-2.75427 0.05421,-9.17235 2.693648,-14.34665 0.682214,-1.33741 1.710522,-2.57647 3.394732,-4.09048 5.1909,-4.666359 7.7484,-9.341335 8.55621,-15.640336 0.39701,-3.095642 0.0246,-6.741092 -0.90995,-8.907754 -0.30651,-0.710621 -0.48164,-2.114205 -0.47912,-3.84 0.007,-4.800006 2.20487,-9.216973 5.24731,-10.545366 1.92592,-0.840893 2.83698,-0.825885 3.96834,0.06537 0.50269,0.396 2.26617,1.674886 3.91886,2.841968 3.46077,2.443901 6.58217,5.760419 11.21047,11.911235 5.20355,6.915306 8.14109,12.330919 9.74553,17.966797 2.74652,9.647606 0.35743,22.464086 -5.31854,28.531716 C 136.83623,128.35179 136,128.99911 136,128.51908 Z M 77.831206,94.401402 c -5.180848,-1.101543 -8.818486,-6.0657 -8.272518,-11.289229 0.391933,-3.749827 2.435178,-6.74016 5.801312,-8.490346 1.373693,-0.714237 2.097875,-0.849427 5.12,-0.955795 4.21184,-0.148246 6.243734,0.451542 8.622218,2.545168 2.219072,1.953306 3.141852,3.993872 3.305168,7.3088 0.170937,3.469571 -0.6017,5.743789 -2.64585,7.787939 -2.120253,2.120253 -4.507312,3.115965 -7.822515,3.263005 -1.506461,0.06682 -3.354979,-0.0095 -4.107815,-0.169542 z m 7.827936,-1.63168 c 3.362983,-1.613044 6.177626,-5.574628 6.182442,-8.701725 0.0047,-3.026807 -2.94457,-7.106051 -6.344762,-8.775802 C 83.941482,74.528406 83.288531,74.4 80.96,74.4 c -2.486448,0 -2.892234,0.0934 -4.725869,1.087712 -2.412269,1.30809 -4.023069,3.013926 -5.13079,5.43351 -1.477677,3.227668 -0.800122,6.274304 2.080179,9.353578 3.478675,3.718989 8.027162,4.628611 12.475622,2.494922 z M 79.84,91.556915 C 77.429094,90.929459 75.656832,89.405859 74.585891,87.04 c -1.811939,-4.002835 0.533715,-8.814538 4.918378,-10.089194 1.964048,-0.570966 3.479619,-0.41438 5.416147,0.559581 5.436384,2.734186 5.390093,10.558362 -0.07898,13.348474 -1.50968,0.770179 -3.602154,1.062227 -5.00144,0.698054 z"
         id="path1298" />
    </g>
  </g>
</svg>
