<?xml version="1.0" standalone="no"?>
<!DOCTYPE svg PUBLIC "-//W3C//DTD SVG 20010904//EN"
 "http://www.w3.org/TR/2001/REC-SVG-20010904/DTD/svg10.dtd">
<svg version="1.0" xmlns="http://www.w3.org/2000/svg"
 width="1000.000000pt" height="500.000000pt" viewBox="0 0 1000.000000 500.000000"
 preserveAspectRatio="xMidYMid meet">

<g transform="translate(0.000000,500.000000) scale(0.100000,-0.100000)"
fill="#ffffff" stroke="none">
<path d="M5730 3359 l0 -372 -44 41 c-106 98 -253 132 -417 98 -284 -61 -449
-335 -449 -746 0 -281 63 -478 199 -623 123 -131 314 -186 484 -142 80 21 125
46 191 106 31 28 58 50 60 48 2 -2 8 -33 12 -69 l9 -65 208 -3 207 -2 0 1050
0 1050 -230 0 -230 0 0 -371z m-135 -590 c26 -7 57 -28 88 -60 l47 -49 0 -291
0 -292 -47 -47 c-129 -129 -323 -77 -373 100 -34 119 -31 374 6 487 20 61 74
130 118 149 38 16 108 18 161 3z"/>
<path d="M3508 3710 c-209 -63 -237 -326 -44 -416 62 -29 168 -32 239 -8 82
28 147 120 147 208 0 93 -69 183 -161 210 -56 17 -136 20 -181 6z"/>
<path d="M4278 3710 c-209 -63 -237 -326 -44 -416 62 -29 168 -32 239 -8 82
28 147 120 147 208 0 93 -69 183 -161 210 -56 17 -136 20 -181 6z"/>
<path d="M1667 3124 c-84 -20 -160 -60 -226 -121 l-60 -53 -7 80 -7 80 -218 0
-219 0 0 -740 0 -740 235 0 235 0 0 523 0 523 38 36 c48 47 98 68 164 68 67 0
116 -24 143 -70 19 -34 20 -53 23 -557 l3 -523 234 0 235 0 0 520 0 520 36 39
c19 22 55 47 79 57 58 22 154 16 193 -13 58 -43 57 -32 60 -600 l3 -523 234 0
235 0 0 514 c0 579 -5 637 -65 763 -72 153 -209 233 -398 233 -165 -1 -313
-67 -404 -181 l-32 -40 -16 31 c-24 46 -83 108 -129 135 -87 51 -249 68 -369
39z"/>
<path d="M6896 3125 c-199 -38 -369 -152 -433 -291 -22 -48 -45 -168 -35 -179
3 -3 108 -5 234 -5 l228 0 0 25 c0 43 27 94 62 115 24 15 50 20 99 20 116 0
164 -53 175 -193 l7 -77 -99 0 c-429 -1 -664 -119 -729 -365 -29 -113 -13
-249 41 -340 14 -24 51 -68 83 -97 186 -172 495 -185 674 -28 l45 40 18 -58
19 -57 239 -3 c225 -2 238 -1 231 15 -58 141 -65 214 -65 668 0 310 -3 392
-15 440 -47 178 -181 305 -380 360 -86 23 -299 28 -399 10z m334 -954 c0 -114
-1 -121 -26 -150 -65 -78 -183 -110 -267 -73 -56 25 -77 61 -77 137 0 67 17
110 58 149 41 38 106 54 220 55 l92 1 0 -119z"/>
<path d="M8365 3130 c-143 -26 -264 -87 -350 -177 -86 -89 -129 -228 -107
-344 16 -86 48 -146 111 -209 88 -87 198 -137 429 -195 206 -51 262 -87 262
-165 0 -30 -8 -48 -31 -75 -38 -43 -91 -59 -180 -53 -113 8 -191 69 -205 160
l-7 38 -215 0 -215 0 6 -59 c12 -142 131 -294 288 -370 127 -61 198 -75 374
-75 121 1 165 5 230 22 272 74 417 241 402 464 -9 140 -83 254 -211 327 -64
37 -202 83 -316 105 -242 48 -327 118 -273 223 28 54 83 83 157 83 107 0 165
-44 181 -137 l7 -43 230 0 231 0 -6 66 c-14 180 -172 335 -402 395 -90 23
-307 34 -390 19z"/>
<path d="M3360 2370 l0 -740 235 0 235 0 0 740 0 740 -235 0 -235 0 0 -740z"/>
<path d="M4130 2370 l0 -740 235 0 235 0 0 740 0 740 -235 0 -235 0 0 -740z"/>
</g>
</svg>
