<?xml version="1.0" standalone="yes"?>
<svg xmlns="http://www.w3.org/2000/svg" width="500" height="500">
<path style="fill:#01cd69; stroke:none;" d="M0 0L0 500L500 500L500 0L0 0z"/>
<path style="fill:#91dfaa; stroke:none;" d="M73 198L94 197C89.5079 195.115 76.3487 194.168 73 198z"/>
<path style="fill:#63d78e; stroke:none;" d="M143 196L144 197L143 196z"/>
<path style="fill:#91dfaa; stroke:none;" d="M144 196L144 197L164 198C160.387 193.865 149.249 196 144 196z"/>
<path style="fill:#f4f5f4; stroke:none;" d="M74 197L96.8002 254L104.942 275.576L89 313C94.8811 313 104.802 314.893 109.787 311.258C117.375 305.725 121.302 289.358 125.22 281C137.828 254.107 154.84 225.543 163 197L142.39 198.028L134.742 212L118 250L101.719 212L94.6065 198.028L74 197z"/>
<path style="fill:#91dfaa; stroke:none;" d="M95 197L96 198L95 197z"/>
<path style="fill:#63d78e; stroke:none;" d="M141 197L142 198L141 197M197 197L197 198L200 198L197 197z"/>
<path style="fill:#91dfaa; stroke:none;" d="M200 197L200 198L204 198L200 197z"/>
<path style="fill:#63d78e; stroke:none;" d="M204 197L204 198L207 198L204 197M288 197L288 198L292 198L288 197z"/>
<path style="fill:#91dfaa; stroke:none;" d="M292 197L292 198L337 198C325.299 193.09 304.742 197 292 197z"/>
<path style="fill:#63d78e; stroke:none;" d="M380 197L380 198L383 198L380 197z"/>
<path style="fill:#91dfaa; stroke:none;" d="M383 197L383 198L386 198L383 197z"/>
<path style="fill:#63d78e; stroke:none;" d="M386 197L386 198L390 198L386 197M96 198L97 199L96 198M140 198L141 199L140 198M163 198L164 199L163 198M191 198L192 199L191 198z"/>
<path style="fill:#91dfaa; stroke:none;" d="M192 198L193 199L192 198z"/>
<path style="fill:#afe6bf; stroke:none;" d="M193.667 198.333L194.333 198.667L193.667 198.333z"/>
<path style="fill:#f4f5f4; stroke:none;" d="M195 198.439C162.335 203.583 148.954 244.905 171.44 268.826C181.313 279.33 196.075 282.707 210 280.7C263.072 273.049 247.786 190.127 195 198.439z"/>
<path style="fill:#afe6bf; stroke:none;" d="M209.667 198.333L210.333 198.667L209.667 198.333z"/>
<path style="fill:#63d78e; stroke:none;" d="M211 198L212 199L211 198M283 198L284 199L283 198z"/>
<path style="fill:#91dfaa; stroke:none;" d="M284 198L285 199L284 198z"/>
<path style="fill:#afe6bf; stroke:none;" d="M285 198L286 199L285 198z"/>
<path style="fill:#f4f5f4; stroke:none;" d="M327 216L327 215C333.091 210.615 335.514 205.178 337 198C314.512 198 284.727 192.422 266.015 207.518C241.271 227.479 250.44 271.157 281 279.51C294.709 283.257 310.257 280.33 320.996 270.815C334.931 258.469 341.732 230.577 327 216z"/>
<path style="fill:#63d78e; stroke:none;" d="M374 198L375 199L374 198z"/>
<path style="fill:#91dfaa; stroke:none;" d="M375 198L376 199L375 198z"/>
<path style="fill:#afe6bf; stroke:none;" d="M376.667 198.333L377.333 198.667L376.667 198.333z"/>
<path style="fill:#f4f5f4; stroke:none;" d="M378 198.439C345.411 203.571 331.377 244.865 354.184 268.91C364.122 279.386 379.073 282.752 393 280.699C445.476 272.965 430.387 190.19 378 198.439z"/>
<path style="fill:#afe6bf; stroke:none;" d="M392 198L393 199L392 198z"/>
<path style="fill:#91dfaa; stroke:none;" d="M393 198L394 199L393 198z"/>
<path style="fill:#63d78e; stroke:none;" d="M394 198L395 199L394 198z"/>
<path style="fill:#afe6bf; stroke:none;" d="M74 199L75 200L74 199M96 199L97 200L96 199M140 199L141 200L140 199M162 199L163 200L162 199z"/>
<path style="fill:#63d78e; stroke:none;" d="M188 199L189 200L188 199z"/>
<path style="fill:#afe6bf; stroke:none;" d="M189 199L190 200L189 199M214 199L215 200L214 199z"/>
<path style="fill:#63d78e; stroke:none;" d="M215 199L216 200L215 199M279 199L280 200L279 199z"/>
<path style="fill:#91dfaa; stroke:none;" d="M280 199L281 200L280 199z"/>
<path style="fill:#afe6bf; stroke:none;" d="M281 199L282 200L281 199z"/>
<path style="fill:#63d78e; stroke:none;" d="M371 199L372 200L371 199z"/>
<path style="fill:#afe6bf; stroke:none;" d="M372 199L373 200L372 199M396 199L397 200L396 199z"/>
<path style="fill:#91dfaa; stroke:none;" d="M397 199L398 200L397 199z"/>
<path style="fill:#63d78e; stroke:none;" d="M398 199L399 200L398 199M74 200L75 201L74 200M139 200L140 201L139 200M162 200L163 201L162 200M185 200L186 201L185 200z"/>
<path style="fill:#91dfaa; stroke:none;" d="M186 200L187 201L186 200M217 200L218 201L217 200M277 200L278 201L277 200z"/>
<path style="fill:#afe6bf; stroke:none;" d="M336.333 200.667L336.667 201.333L336.333 200.667z"/>
<path style="fill:#63d78e; stroke:none;" d="M368 200L369 201L368 200z"/>
<path style="fill:#afe6bf; stroke:none;" d="M369 200L370 201L369 200M399 200L400 201L399 200z"/>
<path style="fill:#91dfaa; stroke:none;" d="M400 200L401 201L400 200M97 201L98 202L97 201z"/>
<path style="fill:#afe6bf; stroke:none;" d="M139 201L140 202L139 201M161 201L162 202L161 201z"/>
<path style="fill:#63d78e; stroke:none;" d="M183 201L184 202L183 201z"/>
<path style="fill:#afe6bf; stroke:none;" d="M184 201L185 202L184 201M219 201L220 202L219 201z"/>
<path style="fill:#63d78e; stroke:none;" d="M220 201L221 202L220 201z"/>
<path style="fill:#91dfaa; stroke:none;" d="M275 201L276 202L275 201M366 201L367 202L366 201z"/>
<path style="fill:#afe6bf; stroke:none;" d="M367 201L368 202L367 201z"/>
<path style="fill:#91dfaa; stroke:none;" d="M402 201L403 202L402 201M75 202L76 203L75 202z"/>
<path style="fill:#63d78e; stroke:none;" d="M161 202L162 203L161 202M181 202L182 203L181 202z"/>
<path style="fill:#afe6bf; stroke:none;" d="M182 202L183 203L182 202M221 202L222 203L221 202z"/>
<path style="fill:#63d78e; stroke:none;" d="M222 202L223 203L222 202z"/>
<path style="fill:#91dfaa; stroke:none;" d="M273 202L274 203L273 202M336 202L337 203L336 202z"/>
<path style="fill:#63d78e; stroke:none;" d="M364 202L365 203L364 202z"/>
<path style="fill:#91dfaa; stroke:none;" d="M404 202L405 203L404 202z"/>
<path style="fill:#63d78e; stroke:none;" d="M98 203L99 204L98 203z"/>
<path style="fill:#91dfaa; stroke:none;" d="M138 203L139 204L138 203z"/>
<path style="fill:#afe6bf; stroke:none;" d="M160 203L161 204L160 203M180 203L181 204L180 203z"/>
<path style="fill:#91dfaa; stroke:none;" d="M223 203L224 204L223 203M271 203L272 204L271 203z"/>
<path style="fill:#63d78e; stroke:none;" d="M362 203L363 204L362 203z"/>
<path style="fill:#afe6bf; stroke:none;" d="M363 203L364 204L363 203z"/>
<path style="fill:#91dfaa; stroke:none;" d="M406 203L407 204L406 203z"/>
<path style="fill:#afe6bf; stroke:none;" d="M76 204L77 205L76 204M98 204L99 205L98 204z"/>
<path style="fill:#91dfaa; stroke:none;" d="M160 204L161 205L160 204z"/>
<path style="fill:#63d78e; stroke:none;" d="M178 204L179 205L178 204M225 204L226 205L225 204M269 204L270 205L269 204z"/>
<path style="fill:#afe6bf; stroke:none;" d="M270 204L271 205L270 204M335 204L336 205L335 204z"/>
<path style="fill:#91dfaa; stroke:none;" d="M361 204L362 205L361 204z"/>
<path style="fill:#afe6bf; stroke:none;" d="M407 204L408 205L407 204z"/>
<path style="fill:#63d78e; stroke:none;" d="M408 204L409 205L408 204M76 205L77 206L76 205M99 205L100 206L99 205z"/>
<path style="fill:#91dfaa; stroke:none;" d="M137 205L138 206L137 205z"/>
<path style="fill:#afe6bf; stroke:none;" d="M177 205L178 206L177 205M226 205L227 206L226 205z"/>
<path style="fill:#91dfaa; stroke:none;" d="M268 205L269 206L268 205z"/>
<path style="fill:#63d78e; stroke:none;" d="M335 205L336 206L335 205M359 205L360 206L359 205z"/>
<path style="fill:#91dfaa; stroke:none;" d="M409 205L410 206L409 205z"/>
<path style="fill:#afe6bf; stroke:none;" d="M77 206L78 207L77 206z"/>
<path style="fill:#91dfaa; stroke:none;" d="M99 206L100 207L99 206M159 206L160 207L159 206z"/>
<path style="fill:#63d78e; stroke:none;" d="M175 206L176 207L175 206M228 206L229 207L228 206z"/>
<path style="fill:#afe6bf; stroke:none;" d="M267 206L268 207L267 206z"/>
<path style="fill:#63d78e; stroke:none;" d="M358 206L359 207L358 206z"/>
<path style="fill:#afe6bf; stroke:none;" d="M410 206L411 207L410 206z"/>
<path style="fill:#91dfaa; stroke:none;" d="M77 207L78 208L77 207M136 207L137 208L136 207z"/>
<path style="fill:#63d78e; stroke:none;" d="M174 207L175 208L174 207M229 207L230 208L229 207M334 207L335 208L334 207z"/>
<path style="fill:#91dfaa; stroke:none;" d="M357 207L358 208L357 207M100 208L101 209L100 208z"/>
<path style="fill:#afe6bf; stroke:none;" d="M136 208L137 209L136 208z"/>
<path style="fill:#91dfaa; stroke:none;" d="M158 208L159 209L158 208M173 208L174 209L173 208M230 208L231 209L230 208z"/>
<path style="fill:#63d78e; stroke:none;" d="M264 208L265 209L264 208z"/>
<path style="fill:#afe6bf; stroke:none;" d="M333 208L334 209L333 208M356 208L357 209L356 208z"/>
<path style="fill:#63d78e; stroke:none;" d="M413 208L414 209L413 208z"/>
<path style="fill:#91dfaa; stroke:none;" d="M78 209L79 210L78 209z"/>
<path style="fill:#afe6bf; stroke:none;" d="M100 209L101 210L100 209z"/>
<path style="fill:#63d78e; stroke:none;" d="M135 209L136 210L135 209z"/>
<path style="fill:#91dfaa; stroke:none;" d="M172 209L173 210L172 209M231 209L232 210L231 209z"/>
<path style="fill:#63d78e; stroke:none;" d="M263 209L264 210L263 209z"/>
<path style="fill:#afe6bf; stroke:none;" d="M355 209L356 210L355 209z"/>
<path style="fill:#63d78e; stroke:none;" d="M414 209L415 210L414 209M78 210L79 211L78 210M101 210L102 211L101 210z"/>
<path style="fill:#afe6bf; stroke:none;" d="M135 210L136 211L135 210M157 210L158 211L157 210z"/>
<path style="fill:#91dfaa; stroke:none;" d="M171 210L172 211L171 210M232 210L233 211L232 210z"/>
<path style="fill:#63d78e; stroke:none;" d="M262 210L263 211L262 210M332 210L333 211L332 210z"/>
<path style="fill:#afe6bf; stroke:none;" d="M354 210L355 211L354 210z"/>
<path style="fill:#63d78e; stroke:none;" d="M415 210L416 211L415 210z"/>
<path style="fill:#afe6bf; stroke:none;" d="M79 211L80 212L79 211M101 211L102 212L101 211z"/>
<path style="fill:#63d78e; stroke:none;" d="M134 211L135 212L134 211M157 211L158 212L157 211z"/>
<path style="fill:#91dfaa; stroke:none;" d="M170 211L171 212L170 211z"/>
<path style="fill:#63d78e; stroke:none;" d="M233 211L234 212L233 211z"/>
<path style="fill:#91dfaa; stroke:none;" d="M331 211L332 212L331 211z"/>
<path style="fill:#afe6bf; stroke:none;" d="M353 211L354 212L353 211z"/>
<path style="fill:#63d78e; stroke:none;" d="M79 212L80 213L79 212z"/>
<path style="fill:#afe6bf; stroke:none;" d="M134 212L135 213L134 212M156 212L157 213L156 212z"/>
<path style="fill:#63d78e; stroke:none;" d="M169 212L170 213L169 212M234 212L235 213L234 212z"/>
<path style="fill:#91dfaa; stroke:none;" d="M330 212L331 213L330 212M352 212L353 213L352 212M102 213L103 214L102 213z"/>
<path style="fill:#63d78e; stroke:none;" d="M133 213L134 214L133 213M156 213L157 214L156 213M168 213L169 214L168 213z"/>
<path style="fill:#afe6bf; stroke:none;" d="M260 213L261 214L260 213z"/>
<path style="fill:#91dfaa; stroke:none;" d="M329 213L330 214L329 213z"/>
<path style="fill:#63d78e; stroke:none;" d="M351 213L352 214L351 213z"/>
<path style="fill:#afe6bf; stroke:none;" d="M417 213L418 214L417 213z"/>
<path style="fill:#91dfaa; stroke:none;" d="M80 214L81 215L80 214M133 214L134 215L133 214z"/>
<path style="fill:#afe6bf; stroke:none;" d="M155 214L156 215L155 214M235 214L236 215L235 214z"/>
<path style="fill:#91dfaa; stroke:none;" d="M259 214L260 215L259 214z"/>
<path style="fill:#63d78e; stroke:none;" d="M328 214L329 215L328 214M350 214L351 215L350 214z"/>
<path style="fill:#91dfaa; stroke:none;" d="M418 214L419 215L418 214z"/>
<path style="fill:#63d78e; stroke:none;" d="M103 215L104 216L103 215M155 215L156 216L155 215z"/>
<path style="fill:#91dfaa; stroke:none;" d="M167 215L168 216L167 215M236 215L237 216L236 215z"/>
<path style="fill:#63d78e; stroke:none;" d="M258 215L259 216L258 215z"/>
<path style="fill:#afe6bf; stroke:none;" d="M327 215L328 216L327 215z"/>
<path style="fill:#63d78e; stroke:none;" d="M419 215L420 216L419 215z"/>
<path style="fill:#afe6bf; stroke:none;" d="M81 216L82 217L81 216M103 216L104 217L103 216z"/>
<path style="fill:#91dfaa; stroke:none;" d="M132 216L133 217L132 216z"/>
<path style="fill:#63d78e; stroke:none;" d="M166 216L167 217L166 216M237 216L238 217L237 216M328 216L329 217L328 216z"/>
<path style="fill:#91dfaa; stroke:none;" d="M349 216L350 217L349 216z"/>
<path style="fill:#63d78e; stroke:none;" d="M81 217L82 218L81 217z"/>
<path style="fill:#91dfaa; stroke:none;" d="M154 217L155 218L154 217z"/>
<path style="fill:#afe6bf; stroke:none;" d="M237 217L238 218L237 217z"/>
<path style="fill:#91dfaa; stroke:none;" d="M257 217L258 218L257 217z"/>
<path style="fill:#63d78e; stroke:none;" d="M348 217L349 218L348 217z"/>
<path style="fill:#91dfaa; stroke:none;" d="M420 217L421 218L420 217M104 218L105 219L104 218M131 218L132 219L131 218M165 218L166 219L165 218z"/>
<path style="fill:#afe6bf; stroke:none;" d="M200 218L200 219L204 219L200 218z"/>
<path style="fill:#91dfaa; stroke:none;" d="M238 218L239 219L238 218z"/>
<path style="fill:#63d78e; stroke:none;" d="M256 218L257 219L256 218z"/>
<path style="fill:#afe6bf; stroke:none;" d="M291 218L291 219L295 219L291 218M329 218L330 219L329 218M348 218L349 219L348 218M383 218L383 219L387 219L383 218z"/>
<path style="fill:#63d78e; stroke:none;" d="M421 218L422 219L421 218z"/>
<path style="fill:#91dfaa; stroke:none;" d="M82 219L83 220L82 219M153 219L154 220L153 219M196 219L197 220L196 219z"/>
<path style="fill:#63d78e; stroke:none;" d="M197 219L198 220L197 219z"/>
<path style="fill:#01cd69; stroke:none;" d="M198 219.519C171.331 225.262 180.475 265.602 207 259.471C232.302 253.622 223.242 214.083 198 219.519z"/>
<path style="fill:#63d78e; stroke:none;" d="M206 219L207 220L206 219z"/>
<path style="fill:#91dfaa; stroke:none;" d="M207 219L208 220L207 219z"/>
<path style="fill:#afe6bf; stroke:none;" d="M256 219L257 220L256 219M287 219L288 220L287 219z"/>
<path style="fill:#63d78e; stroke:none;" d="M288.667 219.333L289.333 219.667L288.667 219.333z"/>
<path style="fill:#01cd69; stroke:none;" d="M290 219.468C264.631 224.142 270.69 263.663 296 259.518C322.309 255.209 316.092 214.662 290 219.468z"/>
<path style="fill:#63d78e; stroke:none;" d="M297 219L298 220L297 219z"/>
<path style="fill:#91dfaa; stroke:none;" d="M298 219L299 220L298 219z"/>
<path style="fill:#afe6bf; stroke:none;" d="M299 219L300 220L299 219z"/>
<path style="fill:#63d78e; stroke:none;" d="M330 219L331 220L330 219M347 219L348 220L347 219z"/>
<path style="fill:#afe6bf; stroke:none;" d="M378 219L379 220L378 219z"/>
<path style="fill:#91dfaa; stroke:none;" d="M379 219L380 220L379 219z"/>
<path style="fill:#63d78e; stroke:none;" d="M380 219L381 220L380 219z"/>
<path style="fill:#01cd69; stroke:none;" d="M381 219.468C354.355 224.462 362.47 264.332 389 259.671C414.701 255.156 406.66 214.658 381 219.468z"/>
<path style="fill:#63d78e; stroke:none;" d="M389 219L390 220L389 219z"/>
<path style="fill:#afe6bf; stroke:none;" d="M390 219L391 220L390 219M421 219L422 220L421 219z"/>
<path style="fill:#63d78e; stroke:none;" d="M105 220L106 221L105 220M130 220L131 221L130 220z"/>
<path style="fill:#91dfaa; stroke:none;" d="M164 220L165 221L164 220z"/>
<path style="fill:#afe6bf; stroke:none;" d="M193 220L194 221L193 220z"/>
<path style="fill:#63d78e; stroke:none;" d="M194 220L195 221L194 220M209 220L210 221L209 220z"/>
<path style="fill:#afe6bf; stroke:none;" d="M210 220L211 221L210 220z"/>
<path style="fill:#91dfaa; stroke:none;" d="M239 220L240 221L239 220z"/>
<path style="fill:#63d78e; stroke:none;" d="M255 220L256 221L255 220z"/>
<path style="fill:#afe6bf; stroke:none;" d="M284 220L285 221L284 220z"/>
<path style="fill:#63d78e; stroke:none;" d="M285 220L286 221L285 220z"/>
<path style="fill:#91dfaa; stroke:none;" d="M301 220L302 221L301 220z"/>
<path style="fill:#afe6bf; stroke:none;" d="M330 220L331 221L330 220z"/>
<path style="fill:#91dfaa; stroke:none;" d="M376 220L377 221L376 220z"/>
<path style="fill:#63d78e; stroke:none;" d="M392 220L393 221L392 220z"/>
<path style="fill:#afe6bf; stroke:none;" d="M393 220L394 221L393 220z"/>
<path style="fill:#63d78e; stroke:none;" d="M422 220L423 221L422 220z"/>
<path style="fill:#afe6bf; stroke:none;" d="M83 221L84 222L83 221M105 221L106 222L105 221M130 221L131 222L130 221z"/>
<path style="fill:#91dfaa; stroke:none;" d="M152 221L153 222L152 221z"/>
<path style="fill:#afe6bf; stroke:none;" d="M191 221L192 222L191 221M212 221L213 222L212 221M255 221L256 222L255 221z"/>
<path style="fill:#63d78e; stroke:none;" d="M283 221L284 222L283 221z"/>
<path style="fill:#91dfaa; stroke:none;" d="M303 221L304 222L303 221z"/>
<path style="fill:#63d78e; stroke:none;" d="M331 221L332 222L331 221z"/>
<path style="fill:#91dfaa; stroke:none;" d="M346 221L347 222L346 221M374 221L375 222L374 221z"/>
<path style="fill:#63d78e; stroke:none;" d="M394 221L395 222L394 221z"/>
<path style="fill:#afe6bf; stroke:none;" d="M395 221L396 222L395 221M422 221L423 222L422 221z"/>
<path style="fill:#63d78e; stroke:none;" d="M83 222L84 223L83 222M106 222L107 223L106 222M129 222L130 223L129 222M152 222L153 223L152 222z"/>
<path style="fill:#91dfaa; stroke:none;" d="M163 222L164 223L163 222z"/>
<path style="fill:#63d78e; stroke:none;" d="M190 222L191 223L190 222M213 222L214 223L213 222z"/>
<path style="fill:#91dfaa; stroke:none;" d="M240 222L241 223L240 222z"/>
<path style="fill:#63d78e; stroke:none;" d="M254 222L255 223L254 222z"/>
<path style="fill:#91dfaa; stroke:none;" d="M281 222L282 223L281 222z"/>
<path style="fill:#63d78e; stroke:none;" d="M304 222L305 223L304 222z"/>
<path style="fill:#afe6bf; stroke:none;" d="M305 222L306 223L305 222M331 222L332 223L331 222M346 222L347 223L346 222M372 222L373 223L372 222z"/>
<path style="fill:#91dfaa; stroke:none;" d="M396 222L397 223L396 222z"/>
<path style="fill:#63d78e; stroke:none;" d="M423 222L424 223L423 222z"/>
<path style="fill:#afe6bf; stroke:none;" d="M84 223L85 224L84 223M106 223L107 224L106 223M129 223L130 224L129 223M151 223L152 224L151 223M188 223L189 224L188 223M215 223L216 224L215 223M254 223L255 224L254 223z"/>
<path style="fill:#63d78e; stroke:none;" d="M280 223L281 224L280 223z"/>
<path style="fill:#afe6bf; stroke:none;" d="M306 223L307 224L306 223z"/>
<path style="fill:#63d78e; stroke:none;" d="M345 223L346 224L345 223z"/>
<path style="fill:#91dfaa; stroke:none;" d="M371 223L372 224L371 223z"/>
<path style="fill:#63d78e; stroke:none;" d="M397 223L398 224L397 223z"/>
<path style="fill:#afe6bf; stroke:none;" d="M423 223L424 224L423 223z"/>
<path style="fill:#91dfaa; stroke:none;" d="M84 224L85 225L84 224z"/>
<path style="fill:#63d78e; stroke:none;" d="M128 224L129 225L128 224M151 224L152 225L151 224z"/>
<path style="fill:#91dfaa; stroke:none;" d="M162 224L163 225L162 224z"/>
<path style="fill:#afe6bf; stroke:none;" d="M187 224L188 225L187 224M216 224L217 225L216 224z"/>
<path style="fill:#63d78e; stroke:none;" d="M241 224L242 225L241 224M279 224L280 225L279 224z"/>
<path style="fill:#91dfaa; stroke:none;" d="M307 224L308 225L307 224M332 224L333 225L332 224z"/>
<path style="fill:#afe6bf; stroke:none;" d="M345 224L346 225L345 224z"/>
<path style="fill:#91dfaa; stroke:none;" d="M370 224L371 225L370 224M107 225L108 226L107 225z"/>
<path style="fill:#afe6bf; stroke:none;" d="M128 225L129 226L128 225M150 225L151 226L150 225M162 225L163 226L162 225M186 225L187 226L186 225M217 225L218 226L217 225M241 225L242 226L241 225z"/>
<path style="fill:#63d78e; stroke:none;" d="M253 225L254 226L253 225M278 225L279 226L278 225z"/>
<path style="fill:#91dfaa; stroke:none;" d="M308 225L309 226L308 225M369 225L370 226L369 225M424 225L425 226L424 225z"/>
<path style="fill:#afe6bf; stroke:none;" d="M85 226L86 227L85 226M107 226L108 227L107 226z"/>
<path style="fill:#63d78e; stroke:none;" d="M150 226L151 227L150 226z"/>
<path style="fill:#afe6bf; stroke:none;" d="M185 226L186 227L185 226M253 226L254 227L253 226z"/>
<path style="fill:#63d78e; stroke:none;" d="M277 226L278 227L277 226z"/>
<path style="fill:#afe6bf; stroke:none;" d="M309 226L310 227L309 226z"/>
<path style="fill:#63d78e; stroke:none;" d="M333 226L334 227L333 226M344 226L345 227L344 226z"/>
<path style="fill:#91dfaa; stroke:none;" d="M368 226L369 227L368 226z"/>
<path style="fill:#63d78e; stroke:none;" d="M400 226L401 227L400 226z"/>
<path style="fill:#afe6bf; stroke:none;" d="M424 226L425 227L424 226z"/>
<path style="fill:#63d78e; stroke:none;" d="M85 227L86 228L85 227M108 227L109 228L108 227z"/>
<path style="fill:#91dfaa; stroke:none;" d="M127 227L128 228L127 227z"/>
<path style="fill:#afe6bf; stroke:none;" d="M149 227L150 228L149 227z"/>
<path style="fill:#91dfaa; stroke:none;" d="M161 227L162 228L161 227z"/>
<path style="fill:#63d78e; stroke:none;" d="M242 227L243 228L242 227z"/>
<path style="fill:#91dfaa; stroke:none;" d="M276 227L277 228L276 227M333 227L334 228L333 227z"/>
<path style="fill:#afe6bf; stroke:none;" d="M344 227L345 228L344 227M367 227L368 228L367 227z"/>
<path style="fill:#63d78e; stroke:none;" d="M401 227L402 228L401 227z"/>
<path style="fill:#afe6bf; stroke:none;" d="M86 228L87 229L86 228M108 228L109 229L108 228z"/>
<path style="fill:#63d78e; stroke:none;" d="M149 228L150 229L149 228z"/>
<path style="fill:#afe6bf; stroke:none;" d="M161 228L162 229L161 228z"/>
<path style="fill:#63d78e; stroke:none;" d="M184 228L185 229L184 228M219 228L220 229L219 228z"/>
<path style="fill:#afe6bf; stroke:none;" d="M242 228L243 229L242 228z"/>
<path style="fill:#63d78e; stroke:none;" d="M252 228L253 229L252 228M310 228L311 229L310 228z"/>
<path style="fill:#afe6bf; stroke:none;" d="M333 228L334 229L333 228M402 228L403 229L402 228z"/>
<path style="fill:#63d78e; stroke:none;" d="M425 228L426 229L425 228M86 229L87 230L86 229z"/>
<path style="fill:#91dfaa; stroke:none;" d="M126 229L127 230L126 229z"/>
<path style="fill:#afe6bf; stroke:none;" d="M183 229L184 230L183 229M220 229L221 230L220 229z"/>
<path style="fill:#91dfaa; stroke:none;" d="M252 229L253 230L252 229z"/>
<path style="fill:#63d78e; stroke:none;" d="M275 229L276 230L275 229z"/>
<path style="fill:#afe6bf; stroke:none;" d="M311 229L312 230L311 229z"/>
<path style="fill:#63d78e; stroke:none;" d="M343 229L344 230L343 229z"/>
<path style="fill:#91dfaa; stroke:none;" d="M366 229L367 230L366 229z"/>
<path style="fill:#afe6bf; stroke:none;" d="M425.333 229.667L425.667 230.333L425.333 229.667z"/>
<path style="fill:#91dfaa; stroke:none;" d="M109 230L110 231L109 230M148 230L149 231L148 230z"/>
<path style="fill:#63d78e; stroke:none;" d="M160.333 230.667L160.667 231.333L160.333 230.667M183 230L184 231L183 230M220 230L221 231L220 230z"/>
<path style="fill:#afe6bf; stroke:none;" d="M252 230L253 231L252 230M274 230L275 231L274 230z"/>
<path style="fill:#63d78e; stroke:none;" d="M334 230L335 231L334 230z"/>
<path style="fill:#91dfaa; stroke:none;" d="M343 230L344 231L343 230M403 230L404 231L403 230M87 231L88 232L87 231z"/>
<path style="fill:#63d78e; stroke:none;" d="M125 231L126 232L125 231z"/>
<path style="fill:#afe6bf; stroke:none;" d="M182 231L183 232L182 231M221 231L222 232L221 231z"/>
<path style="fill:#63d78e; stroke:none;" d="M243 231L244 232L243 231M274 231L275 232L274 231z"/>
<path style="fill:#afe6bf; stroke:none;" d="M312 231L313 232L312 231z"/>
<path style="fill:#91dfaa; stroke:none;" d="M334 231L335 232L334 231z"/>
<path style="fill:#afe6bf; stroke:none;" d="M343 231L344 232L343 231z"/>
<path style="fill:#91dfaa; stroke:none;" d="M365 231L366 232L365 231z"/>
<path style="fill:#63d78e; stroke:none;" d="M87 232L88 233L87 232M110 232L111 233L110 232z"/>
<path style="fill:#afe6bf; stroke:none;" d="M125 232L126 233L125 232z"/>
<path style="fill:#91dfaa; stroke:none;" d="M147 232L148 233L147 232M160 232L161 233L160 232z"/>
<path style="fill:#63d78e; stroke:none;" d="M182 232L183 233L182 232z"/>
<path style="fill:#91dfaa; stroke:none;" d="M221 232L222 233L221 232M243 232L244 233L243 232z"/>
<path style="fill:#63d78e; stroke:none;" d="M312 232L313 233L312 232z"/>
<path style="fill:#afe6bf; stroke:none;" d="M334.333 232.667L334.667 233.333L334.333 232.667M404 232L405 233L404 232z"/>
<path style="fill:#63d78e; stroke:none;" d="M426.333 232.667L426.667 233.333L426.333 232.667z"/>
<path style="fill:#afe6bf; stroke:none;" d="M88 233L89 234L88 233M110 233L111 234L110 233z"/>
<path style="fill:#63d78e; stroke:none;" d="M124 233L125 234L124 233z"/>
<path style="fill:#afe6bf; stroke:none;" d="M160.333 233.667L160.667 234.333L160.333 233.667M243.333 233.667L243.667 234.333L243.333 233.667z"/>
<path style="fill:#63d78e; stroke:none;" d="M251 233L252 234L251 233z"/>
<path style="fill:#afe6bf; stroke:none;" d="M273 233L274 234L273 233M364 233L365 234L364 233z"/>
<path style="fill:#63d78e; stroke:none;" d="M404 233L405 234L404 233M88 234L89 235L88 234M111 234L112 235L111 234z"/>
<path style="fill:#afe6bf; stroke:none;" d="M124 234L125 235L124 234M146 234L147 235L146 234M181 234L182 235L181 234M222 234L223 235L222 234z"/>
<path style="fill:#91dfaa; stroke:none;" d="M251 234L251 237L252 237L251 234z"/>
<path style="fill:#63d78e; stroke:none;" d="M273 234L274 235L273 234z"/>
<path style="fill:#afe6bf; stroke:none;" d="M313 234L314 235L313 234z"/>
<path style="fill:#91dfaa; stroke:none;" d="M364 234L365 235L364 234M426.333 234.667L426.667 235.333L426.333 234.667M111 235L112 236L111 235z"/>
<path style="fill:#63d78e; stroke:none;" d="M123 235L124 236L123 235M146 235L147 236L146 235z"/>
<path style="fill:#91dfaa; stroke:none;" d="M181 235L182 236L181 235M222 235L223 236L222 235M313 235L314 236L313 235z"/>
<path style="fill:#63d78e; stroke:none;" d="M342 235L342 238L343 238L342 235M364 235L365 236L364 235z"/>
<path style="fill:#afe6bf; stroke:none;" d="M405.333 235.667L405.667 236.333L405.333 235.667z"/>
<path style="fill:#91dfaa; stroke:none;" d="M89 236L90 237L89 236z"/>
<path style="fill:#afe6bf; stroke:none;" d="M123 236L124 237L123 236M145 236L146 237L145 236z"/>
<path style="fill:#63d78e; stroke:none;" d="M181.333 236.667L181.667 237.333L181.333 236.667M222.333 236.667L222.667 237.333L222.333 236.667M313 236L314 237L313 236z"/>
<path style="fill:#afe6bf; stroke:none;" d="M426 236L426 244L427 244L426 236z"/>
<path style="fill:#91dfaa; stroke:none;" d="M112 237L113 238L112 237z"/>
<path style="fill:#63d78e; stroke:none;" d="M145 237L146 238L145 237z"/>
<path style="fill:#afe6bf; stroke:none;" d="M251 237L251 242L252 242L251 237M272 237L272 242L273 242L272 237z"/>
<path style="fill:#91dfaa; stroke:none;" d="M405.333 237.667L405.667 238.333L405.333 237.667z"/>
<path style="fill:#afe6bf; stroke:none;" d="M90 238L91 239L90 238M112 238L113 239L112 238z"/>
<path style="fill:#91dfaa; stroke:none;" d="M122 238L123 239L122 238z"/>
<path style="fill:#afe6bf; stroke:none;" d="M144 238L145 239L144 238z"/>
<path style="fill:#63d78e; stroke:none;" d="M335 238L335 241L336 241L335 238z"/>
<path style="fill:#91dfaa; stroke:none;" d="M342 238L342 242L343 242L342 238z"/>
<path style="fill:#afe6bf; stroke:none;" d="M363 238L363 242L364 242L363 238z"/>
<path style="fill:#63d78e; stroke:none;" d="M90 239L91 240L90 239M113 239L114 240L113 239M144 239L145 240L144 239M405.333 239.667L405.667 240.333L405.333 239.667z"/>
<path style="fill:#afe6bf; stroke:none;" d="M113 240L114 241L113 240z"/>
<path style="fill:#91dfaa; stroke:none;" d="M121 240L122 241L121 240M91 241L92 242L91 241M143 241L144 242L143 241z"/>
<path style="fill:#63d78e; stroke:none;" d="M222.333 241.667L222.667 242.333L222.333 241.667M313.333 241.667L313.667 242.333L313.333 241.667z"/>
<path style="fill:#91dfaa; stroke:none;" d="M405.333 241.667L405.667 242.333L405.333 241.667M114 242L115 243L114 242M120 242L121 243L120 242z"/>
<path style="fill:#63d78e; stroke:none;" d="M181 242L182 243L181 242z"/>
<path style="fill:#91dfaa; stroke:none;" d="M251 242L251 245L252 245L251 242z"/>
<path style="fill:#63d78e; stroke:none;" d="M342 242L342 245L343 245L342 242z"/>
<path style="fill:#afe6bf; stroke:none;" d="M92 243L93 244L92 243M120 243L121 244L120 243z"/>
<path style="fill:#91dfaa; stroke:none;" d="M142 243L143 244L142 243M181 243L182 244L181 243M222 243L223 244L222 243z"/>
<path style="fill:#63d78e; stroke:none;" d="M273 243L274 244L273 243z"/>
<path style="fill:#91dfaa; stroke:none;" d="M313 243L314 244L313 243z"/>
<path style="fill:#afe6bf; stroke:none;" d="M405 243L406 244L405 243z"/>
<path style="fill:#63d78e; stroke:none;" d="M92 244L93 245L92 244M115 244L116 245L115 244M119 244L120 245L119 244z"/>
<path style="fill:#afe6bf; stroke:none;" d="M181 244L182 245L181 244M222 244L223 245L222 244M243.333 244.667L243.667 245.333L243.333 244.667z"/>
<path style="fill:#91dfaa; stroke:none;" d="M273 244L274 245L273 244z"/>
<path style="fill:#afe6bf; stroke:none;" d="M313 244L314 245L313 244z"/>
<path style="fill:#63d78e; stroke:none;" d="M364 244L365 245L364 244z"/>
<path style="fill:#91dfaa; stroke:none;" d="M426.333 244.667L426.667 245.333L426.333 244.667z"/>
<path style="fill:#afe6bf; stroke:none;" d="M93 245L94 246L93 245M115 245L116 246L115 245M119 245L120 246L119 245z"/>
<path style="fill:#91dfaa; stroke:none;" d="M141 245L142 246L141 245z"/>
<path style="fill:#afe6bf; stroke:none;" d="M160.333 245.667L160.667 246.333L160.333 245.667z"/>
<path style="fill:#63d78e; stroke:none;" d="M251.333 245.667L251.667 246.333L251.333 245.667z"/>
<path style="fill:#afe6bf; stroke:none;" d="M273 245L274 246L273 245M334.333 245.667L334.667 246.333L334.333 245.667M364 245L365 246L364 245z"/>
<path style="fill:#63d78e; stroke:none;" d="M404 245L405 246L404 245z"/>
<path style="fill:#91dfaa; stroke:none;" d="M93 246L94 247L93 246z"/>
<path style="fill:#63d78e; stroke:none;" d="M118 246L119 247L118 246M182 246L183 247L182 246M221 246L222 247L221 246z"/>
<path style="fill:#91dfaa; stroke:none;" d="M243 246L244 247L243 246z"/>
<path style="fill:#63d78e; stroke:none;" d="M312 246L313 247L312 246z"/>
<path style="fill:#afe6bf; stroke:none;" d="M404 246L405 247L404 246z"/>
<path style="fill:#63d78e; stroke:none;" d="M426 246L427 247L426 246z"/>
<path style="fill:#91dfaa; stroke:none;" d="M116 247L117 248L116 247z"/>
<path style="fill:#afe6bf; stroke:none;" d="M118 247L119 248L118 247M140 247L141 248L140 247z"/>
<path style="fill:#91dfaa; stroke:none;" d="M160 247L161 248L160 247z"/>
<path style="fill:#afe6bf; stroke:none;" d="M182 247L183 248L182 247M221 247L222 248L221 247z"/>
<path style="fill:#63d78e; stroke:none;" d="M243.333 247.667L243.667 248.333L243.333 247.667z"/>
<path style="fill:#91dfaa; stroke:none;" d="M274 247L275 248L274 247z"/>
<path style="fill:#afe6bf; stroke:none;" d="M312 247L313 248L312 247z"/>
<path style="fill:#91dfaa; stroke:none;" d="M334 247L335 248L334 247z"/>
<path style="fill:#afe6bf; stroke:none;" d="M343 247L344 248L343 247z"/>
<path style="fill:#63d78e; stroke:none;" d="M365 247L366 248L365 247z"/>
<path style="fill:#91dfaa; stroke:none;" d="M94 248L95 249L94 248z"/>
<path style="fill:#63d78e; stroke:none;" d="M140 248L141 249L140 248M160 248L161 249L160 248z"/>
<path style="fill:#afe6bf; stroke:none;" d="M252 248L253 249L252 248z"/>
<path style="fill:#63d78e; stroke:none;" d="M311 248L312 249L311 248M334 248L335 249L334 248z"/>
<path style="fill:#91dfaa; stroke:none;" d="M343 248L344 249L343 248z"/>
<path style="fill:#afe6bf; stroke:none;" d="M365 248L366 249L365 248z"/>
<path style="fill:#91dfaa; stroke:none;" d="M403 248L404 249L403 248z"/>
<path style="fill:#63d78e; stroke:none;" d="M94 249L95 250L94 249z"/>
<path style="fill:#afe6bf; stroke:none;" d="M117 249L118 250L117 249M139 249L140 250L139 249z"/>
<path style="fill:#91dfaa; stroke:none;" d="M183 249L184 250L183 249M220 249L221 250L220 249M252 249L253 250L252 249M275 249L276 250L275 249z"/>
<path style="fill:#afe6bf; stroke:none;" d="M311 249L312 250L311 249z"/>
<path style="fill:#63d78e; stroke:none;" d="M343 249L344 250L343 249M366 249L367 250L366 249z"/>
<path style="fill:#afe6bf; stroke:none;" d="M425 249L426 250L425 249M95 250L96 251L95 250z"/>
<path style="fill:#63d78e; stroke:none;" d="M139 250L140 251L139 250z"/>
<path style="fill:#afe6bf; stroke:none;" d="M161 250L162 251L161 250z"/>
<path style="fill:#63d78e; stroke:none;" d="M219 250L220 251L219 250z"/>
<path style="fill:#afe6bf; stroke:none;" d="M242 250L243 251L242 250z"/>
<path style="fill:#63d78e; stroke:none;" d="M252 250L253 251L252 250M310 250L311 251L310 250z"/>
<path style="fill:#afe6bf; stroke:none;" d="M333 250L334 251L333 250M366 250L367 251L366 250z"/>
<path style="fill:#91dfaa; stroke:none;" d="M402 250L403 251L402 250M425 250L426 251L425 250z"/>
<path style="fill:#63d78e; stroke:none;" d="M95 251L96 252L95 251z"/>
<path style="fill:#afe6bf; stroke:none;" d="M138 251L139 252L138 251z"/>
<path style="fill:#91dfaa; stroke:none;" d="M161 251L162 252L161 251z"/>
<path style="fill:#afe6bf; stroke:none;" d="M184 251L185 252L184 251M219 251L220 252L219 251z"/>
<path style="fill:#91dfaa; stroke:none;" d="M242 251L243 252L242 251z"/>
<path style="fill:#afe6bf; stroke:none;" d="M276 251L277 252L276 251z"/>
<path style="fill:#91dfaa; stroke:none;" d="M333 251L334 252L333 251z"/>
<path style="fill:#afe6bf; stroke:none;" d="M344 251L345 252L344 251z"/>
<path style="fill:#91dfaa; stroke:none;" d="M367 251L368 252L367 251z"/>
<path style="fill:#63d78e; stroke:none;" d="M401 251L402 252L401 251M425 251L426 252L425 251M138 252L139 253L138 252M161 252L162 253L161 252z"/>
<path style="fill:#91dfaa; stroke:none;" d="M185 252L186 253L185 252M218 252L219 253L218 252z"/>
<path style="fill:#63d78e; stroke:none;" d="M242 252L243 253L242 252z"/>
<path style="fill:#afe6bf; stroke:none;" d="M253 252L254 253L253 252z"/>
<path style="fill:#91dfaa; stroke:none;" d="M277 252L278 253L277 252z"/>
<path style="fill:#afe6bf; stroke:none;" d="M309 252L310 253L309 252z"/>
<path style="fill:#63d78e; stroke:none;" d="M333 252L334 253L333 252z"/>
<path style="fill:#91dfaa; stroke:none;" d="M344 252L345 253L344 252z"/>
<path style="fill:#63d78e; stroke:none;" d="M368 252L369 253L368 252z"/>
<path style="fill:#afe6bf; stroke:none;" d="M401 252L402 253L401 252z"/>
<path style="fill:#91dfaa; stroke:none;" d="M96 253L97 254L96 253z"/>
<path style="fill:#63d78e; stroke:none;" d="M186 253L187 254L186 253z"/>
<path style="fill:#91dfaa; stroke:none;" d="M217 253L218 254L217 253z"/>
<path style="fill:#63d78e; stroke:none;" d="M253 253L254 254L253 253z"/>
<path style="fill:#91dfaa; stroke:none;" d="M278 253L279 254L278 253z"/>
<path style="fill:#afe6bf; stroke:none;" d="M308 253L309 254L308 253z"/>
<path style="fill:#63d78e; stroke:none;" d="M344 253L345 254L344 253z"/>
<path style="fill:#afe6bf; stroke:none;" d="M400 253L401 254L400 253z"/>
<path style="fill:#91dfaa; stroke:none;" d="M424 253L425 254L424 253M137 254L138 255L137 254M162 254L163 255L162 254z"/>
<path style="fill:#63d78e; stroke:none;" d="M187 254L188 255L187 254z"/>
<path style="fill:#91dfaa; stroke:none;" d="M216 254L217 255L216 254M241 254L242 255L241 254M279 254L280 255L279 254z"/>
<path style="fill:#afe6bf; stroke:none;" d="M307 254L308 255L307 254z"/>
<path style="fill:#91dfaa; stroke:none;" d="M332 254L333 255L332 254z"/>
<path style="fill:#afe6bf; stroke:none;" d="M345 254L346 255L345 254M399 254L400 255L399 254z"/>
<path style="fill:#63d78e; stroke:none;" d="M424 254L425 255L424 254z"/>
<path style="fill:#afe6bf; stroke:none;" d="M97 255L98 256L97 255z"/>
<path style="fill:#63d78e; stroke:none;" d="M162 255L163 256L162 255M188 255L189 256L188 255z"/>
<path style="fill:#91dfaa; stroke:none;" d="M215 255L216 256L215 255z"/>
<path style="fill:#afe6bf; stroke:none;" d="M254 255L255 256L254 255z"/>
<path style="fill:#91dfaa; stroke:none;" d="M280 255L281 256L280 255z"/>
<path style="fill:#afe6bf; stroke:none;" d="M306 255L307 256L306 255z"/>
<path style="fill:#91dfaa; stroke:none;" d="M345 255L346 256L345 255z"/>
<path style="fill:#63d78e; stroke:none;" d="M371 255L372 256L371 255z"/>
<path style="fill:#afe6bf; stroke:none;" d="M398 255L399 256L398 255M423 255L424 256L423 255z"/>
<path style="fill:#63d78e; stroke:none;" d="M97 256L98 257L97 256z"/>
<path style="fill:#91dfaa; stroke:none;" d="M136 256L137 257L136 256z"/>
<path style="fill:#afe6bf; stroke:none;" d="M163 256L164 257L163 256z"/>
<path style="fill:#91dfaa; stroke:none;" d="M189 256L190 257L189 256z"/>
<path style="fill:#afe6bf; stroke:none;" d="M214 256L215 257L214 256M240 256L241 257L240 256z"/>
<path style="fill:#63d78e; stroke:none;" d="M254 256L255 257L254 256z"/>
<path style="fill:#afe6bf; stroke:none;" d="M281 256L282 257L281 256z"/>
<path style="fill:#63d78e; stroke:none;" d="M282 256L283 257L282 256M304 256L305 257L304 256z"/>
<path style="fill:#afe6bf; stroke:none;" d="M331 256L332 257L331 256z"/>
<path style="fill:#63d78e; stroke:none;" d="M372 256L373 257L372 256z"/>
<path style="fill:#afe6bf; stroke:none;" d="M397 256L398 257L397 256z"/>
<path style="fill:#63d78e; stroke:none;" d="M423 256L424 257L423 256M163 257L164 258L163 257M191 257L192 258L191 257M212 257L213 258L212 257M240 257L241 258L240 257z"/>
<path style="fill:#afe6bf; stroke:none;" d="M255 257L256 258L255 257z"/>
<path style="fill:#91dfaa; stroke:none;" d="M283 257L284 258L283 257z"/>
<path style="fill:#63d78e; stroke:none;" d="M302 257L303 258L302 257z"/>
<path style="fill:#afe6bf; stroke:none;" d="M303 257L304 258L303 257z"/>
<path style="fill:#63d78e; stroke:none;" d="M331 257L332 258L331 257z"/>
<path style="fill:#91dfaa; stroke:none;" d="M346 257L347 258L346 257z"/>
<path style="fill:#afe6bf; stroke:none;" d="M373 257L374 258L373 257z"/>
<path style="fill:#91dfaa; stroke:none;" d="M395 257L396 258L395 257M98 258L99 259L98 258z"/>
<path style="fill:#afe6bf; stroke:none;" d="M135 258L136 259L135 258M164 258L165 259L164 258M192 258L193 259L192 258z"/>
<path style="fill:#63d78e; stroke:none;" d="M193 258L194 259L193 258M210 258L211 259L210 258z"/>
<path style="fill:#afe6bf; stroke:none;" d="M211 258L212 259L211 258M239 258L240 259L239 258z"/>
<path style="fill:#63d78e; stroke:none;" d="M255 258L256 259L255 258z"/>
<path style="fill:#afe6bf; stroke:none;" d="M285 258L286 259L285 258z"/>
<path style="fill:#63d78e; stroke:none;" d="M286 258L287 259L286 258M300 258L301 259L300 258z"/>
<path style="fill:#afe6bf; stroke:none;" d="M301 258L302 259L301 258M330 258L331 259L330 258z"/>
<path style="fill:#91dfaa; stroke:none;" d="M375 258L376 259L375 258M393 258L394 259L393 258M422 258L423 259L422 258z"/>
<path style="fill:#63d78e; stroke:none;" d="M135 259L136 260L135 259M164 259L165 260L164 259z"/>
<path style="fill:#afe6bf; stroke:none;" d="M194 259L195 260L194 259z"/>
<path style="fill:#91dfaa; stroke:none;" d="M195 259L196 260L195 259z"/>
<path style="fill:#63d78e; stroke:none;" d="M207 259L208 260L207 259z"/>
<path style="fill:#91dfaa; stroke:none;" d="M208 259L209 260L208 259z"/>
<path style="fill:#63d78e; stroke:none;" d="M239 259L240 260L239 259z"/>
<path style="fill:#afe6bf; stroke:none;" d="M256 259L257 260L256 259M288 259L289 260L288 259z"/>
<path style="fill:#63d78e; stroke:none;" d="M289.667 259.333L290.333 259.667L289.667 259.333M296 259L297 260L296 259z"/>
<path style="fill:#91dfaa; stroke:none;" d="M297 259L298 260L297 259z"/>
<path style="fill:#afe6bf; stroke:none;" d="M298 259L299 260L298 259z"/>
<path style="fill:#63d78e; stroke:none;" d="M330 259L331 260L330 259z"/>
<path style="fill:#91dfaa; stroke:none;" d="M347 259L348 260L347 259z"/>
<path style="fill:#afe6bf; stroke:none;" d="M377 259L378 260L377 259z"/>
<path style="fill:#63d78e; stroke:none;" d="M378 259L379 260L378 259M390 259L391 260L390 259z"/>
<path style="fill:#afe6bf; stroke:none;" d="M391 259L392 260L391 259M99 260L100 261L99 260M134 260L135 261L134 260M165 260L166 261L165 260M198 260L199 261L198 260z"/>
<path style="fill:#91dfaa; stroke:none;" d="M199.667 260.333L200.333 260.667L199.667 260.333z"/>
<path style="fill:#63d78e; stroke:none;" d="M201.667 260.333L202.333 260.667L201.667 260.333z"/>
<path style="fill:#91dfaa; stroke:none;" d="M203.667 260.333L204.333 260.667L203.667 260.333z"/>
<path style="fill:#afe6bf; stroke:none;" d="M205 260L206 261L205 260M238 260L239 261L238 260z"/>
<path style="fill:#63d78e; stroke:none;" d="M256 260L257 261L256 260z"/>
<path style="fill:#afe6bf; stroke:none;" d="M329 260L330 261L329 260M380.667 260.333L381.333 260.667L380.667 260.333z"/>
<path style="fill:#91dfaa; stroke:none;" d="M382.667 260.333L383.333 260.667L382.667 260.333z"/>
<path style="fill:#63d78e; stroke:none;" d="M384.667 260.333L385.333 260.667L384.667 260.333z"/>
<path style="fill:#91dfaa; stroke:none;" d="M386.667 260.333L387.333 260.667L386.667 260.333z"/>
<path style="fill:#afe6bf; stroke:none;" d="M388 260L389 261L388 260z"/>
<path style="fill:#63d78e; stroke:none;" d="M421 260L422 261L421 260M99 261L100 262L99 261M134 261L135 262L134 261M165 261L166 262L165 261z"/>
<path style="fill:#91dfaa; stroke:none;" d="M257 261L258 262L257 261M348 261L349 262L348 261z"/>
<path style="fill:#afe6bf; stroke:none;" d="M420 261L421 262L420 261M100 262L101 263L100 262M133 262L134 263L133 262z"/>
<path style="fill:#91dfaa; stroke:none;" d="M166 262L167 263L166 262M237 262L238 263L237 262z"/>
<path style="fill:#63d78e; stroke:none;" d="M328 262L329 263L328 262z"/>
<path style="fill:#afe6bf; stroke:none;" d="M349 262L350 263L349 262z"/>
<path style="fill:#63d78e; stroke:none;" d="M420 262L421 263L420 262z"/>
<path style="fill:#91dfaa; stroke:none;" d="M100 263L101 264L100 263z"/>
<path style="fill:#63d78e; stroke:none;" d="M133 263L134 264L133 263z"/>
<path style="fill:#afe6bf; stroke:none;" d="M236 263L237 264L236 263z"/>
<path style="fill:#63d78e; stroke:none;" d="M258 263L259 264L258 263z"/>
<path style="fill:#afe6bf; stroke:none;" d="M327 263L328 264L327 263z"/>
<path style="fill:#63d78e; stroke:none;" d="M349 263L350 264L349 263z"/>
<path style="fill:#91dfaa; stroke:none;" d="M419 263L420 264L419 263z"/>
<path style="fill:#63d78e; stroke:none;" d="M167 264L168 265L167 264z"/>
<path style="fill:#91dfaa; stroke:none;" d="M259 264L260 265L259 264M350 264L351 265L350 264z"/>
<path style="fill:#afe6bf; stroke:none;" d="M418 264L419 265L418 264z"/>
<path style="fill:#91dfaa; stroke:none;" d="M101 265L102 266L101 265M132 265L133 266L132 265M168 265L169 266L168 265z"/>
<path style="fill:#63d78e; stroke:none;" d="M235 265L236 266L235 265z"/>
<path style="fill:#afe6bf; stroke:none;" d="M260 265L261 266L260 265z"/>
<path style="fill:#63d78e; stroke:none;" d="M326 265L327 266L326 265z"/>
<path style="fill:#afe6bf; stroke:none;" d="M351 265L352 266L351 265z"/>
<path style="fill:#63d78e; stroke:none;" d="M101 266L102 267L101 266z"/>
<path style="fill:#afe6bf; stroke:none;" d="M169 266L170 267L169 266z"/>
<path style="fill:#91dfaa; stroke:none;" d="M234 266L235 267L234 266M325 266L326 267L325 266z"/>
<path style="fill:#63d78e; stroke:none;" d="M417 266L418 267L417 266z"/>
<path style="fill:#afe6bf; stroke:none;" d="M102 267L103 268L102 267z"/>
<path style="fill:#91dfaa; stroke:none;" d="M131 267L132 268L131 267z"/>
<path style="fill:#afe6bf; stroke:none;" d="M170 267L171 268L170 267M233 267L234 268L233 267z"/>
<path style="fill:#63d78e; stroke:none;" d="M261 267L262 268L261 267z"/>
<path style="fill:#91dfaa; stroke:none;" d="M324 267L325 268L324 267M416 267L417 268L416 267z"/>
<path style="fill:#63d78e; stroke:none;" d="M102 268L103 269L102 268z"/>
<path style="fill:#afe6bf; stroke:none;" d="M232 268L233 269L232 268z"/>
<path style="fill:#63d78e; stroke:none;" d="M262 268L263 269L262 268z"/>
<path style="fill:#afe6bf; stroke:none;" d="M323 268L324 269L323 268z"/>
<path style="fill:#63d78e; stroke:none;" d="M353 268L354 269L353 268z"/>
<path style="fill:#91dfaa; stroke:none;" d="M415 268L416 269L415 268M130 269L131 270L130 269z"/>
<path style="fill:#afe6bf; stroke:none;" d="M231 269L232 270L231 269z"/>
<path style="fill:#63d78e; stroke:none;" d="M263 269L264 270L263 269z"/>
<path style="fill:#afe6bf; stroke:none;" d="M322 269L323 270L322 269z"/>
<path style="fill:#63d78e; stroke:none;" d="M354 269L355 270L354 269z"/>
<path style="fill:#91dfaa; stroke:none;" d="M414 269L415 270L414 269M103 270L104 271L103 270z"/>
<path style="fill:#afe6bf; stroke:none;" d="M230 270L231 271L230 270z"/>
<path style="fill:#63d78e; stroke:none;" d="M264 270L265 271L264 270z"/>
<path style="fill:#afe6bf; stroke:none;" d="M321 270L322 271L321 270z"/>
<path style="fill:#63d78e; stroke:none;" d="M355 270L356 271L355 270z"/>
<path style="fill:#91dfaa; stroke:none;" d="M413 270L414 271L413 270z"/>
<path style="fill:#afe6bf; stroke:none;" d="M129 271L130 272L129 271M174 271L175 272L174 271M229 271L230 272L229 271z"/>
<path style="fill:#91dfaa; stroke:none;" d="M320 271L321 272L320 271z"/>
<path style="fill:#63d78e; stroke:none;" d="M356 271L357 272L356 271z"/>
<path style="fill:#91dfaa; stroke:none;" d="M412 271L413 272L412 271z"/>
<path style="fill:#afe6bf; stroke:none;" d="M104 272L105 273L104 272z"/>
<path style="fill:#63d78e; stroke:none;" d="M129 272L130 273L129 272z"/>
<path style="fill:#91dfaa; stroke:none;" d="M175 272L176 273L175 272M228 272L229 273L228 272z"/>
<path style="fill:#afe6bf; stroke:none;" d="M267 272L268 273L267 272z"/>
<path style="fill:#63d78e; stroke:none;" d="M319 272L320 273L319 272z"/>
<path style="fill:#afe6bf; stroke:none;" d="M358 272L359 273L358 272z"/>
<path style="fill:#63d78e; stroke:none;" d="M411 272L412 273L411 272M104 273L105 274L104 273z"/>
<path style="fill:#afe6bf; stroke:none;" d="M128 273L129 274L128 273z"/>
<path style="fill:#63d78e; stroke:none;" d="M176 273L177 274L176 273M227 273L228 274L227 273z"/>
<path style="fill:#91dfaa; stroke:none;" d="M268 273L269 274L268 273z"/>
<path style="fill:#afe6bf; stroke:none;" d="M317 273L318 274L317 273z"/>
<path style="fill:#91dfaa; stroke:none;" d="M359 273L360 274L359 273z"/>
<path style="fill:#afe6bf; stroke:none;" d="M409 273L410 274L409 273z"/>
<path style="fill:#63d78e; stroke:none;" d="M128 274L129 275L128 274z"/>
<path style="fill:#afe6bf; stroke:none;" d="M178 274L179 275L178 274M225 274L226 275L225 274z"/>
<path style="fill:#63d78e; stroke:none;" d="M269 274L270 275L269 274z"/>
<path style="fill:#afe6bf; stroke:none;" d="M270 274L271 275L270 274z"/>
<path style="fill:#91dfaa; stroke:none;" d="M316 274L317 275L316 274z"/>
<path style="fill:#63d78e; stroke:none;" d="M360 274L361 275L360 274z"/>
<path style="fill:#91dfaa; stroke:none;" d="M408 274L409 275L408 274M105 275L106 276L105 275z"/>
<path style="fill:#afe6bf; stroke:none;" d="M127 275L128 276L127 275z"/>
<path style="fill:#63d78e; stroke:none;" d="M179 275L180 276L179 275M224 275L225 276L224 275z"/>
<path style="fill:#91dfaa; stroke:none;" d="M271 275L272 276L271 275z"/>
<path style="fill:#afe6bf; stroke:none;" d="M314 275L315 276L314 275z"/>
<path style="fill:#63d78e; stroke:none;" d="M315 275L316 276L315 275z"/>
<path style="fill:#91dfaa; stroke:none;" d="M362 275L363 276L362 275z"/>
<path style="fill:#afe6bf; stroke:none;" d="M406 275L407 276L406 275z"/>
<path style="fill:#63d78e; stroke:none;" d="M407 275L408 276L407 275M127 276L128 277L127 276z"/>
<path style="fill:#91dfaa; stroke:none;" d="M181 276L182 277L181 276M222 276L223 277L222 276M273 276L274 277L273 276z"/>
<path style="fill:#afe6bf; stroke:none;" d="M312 276L313 277L312 276z"/>
<path style="fill:#63d78e; stroke:none;" d="M313 276L314 277L313 276M363 276L364 277L363 276z"/>
<path style="fill:#afe6bf; stroke:none;" d="M364 276L365 277L364 276z"/>
<path style="fill:#63d78e; stroke:none;" d="M405 276L406 277L405 276z"/>
<path style="fill:#91dfaa; stroke:none;" d="M104 277L105 278L104 277z"/>
<path style="fill:#63d78e; stroke:none;" d="M182 277L183 278L182 277z"/>
<path style="fill:#afe6bf; stroke:none;" d="M183 277L184 278L183 277z"/>
<path style="fill:#91dfaa; stroke:none;" d="M220 277L221 278L220 277M275 277L276 278L275 277z"/>
<path style="fill:#afe6bf; stroke:none;" d="M310 277L311 278L310 277z"/>
<path style="fill:#63d78e; stroke:none;" d="M311 277L312 278L311 277M365 277L366 278L365 277z"/>
<path style="fill:#afe6bf; stroke:none;" d="M366 277L367 278L366 277z"/>
<path style="fill:#91dfaa; stroke:none;" d="M403 277L404 278L403 277z"/>
<path style="fill:#afe6bf; stroke:none;" d="M104 278L105 279L104 278z"/>
<path style="fill:#91dfaa; stroke:none;" d="M126 278L127 279L126 278M185 278L186 279L185 278M218 278L219 279L218 278M277 278L278 279L277 278z"/>
<path style="fill:#afe6bf; stroke:none;" d="M308 278L309 279L308 278z"/>
<path style="fill:#63d78e; stroke:none;" d="M309 278L310 279L309 278M367 278L368 279L367 278z"/>
<path style="fill:#afe6bf; stroke:none;" d="M368 278L369 279L368 278M400 278L401 279L400 278z"/>
<path style="fill:#91dfaa; stroke:none;" d="M401 278L402 279L401 278z"/>
<path style="fill:#63d78e; stroke:none;" d="M103 279L104 280L103 279M187 279L188 280L187 279z"/>
<path style="fill:#afe6bf; stroke:none;" d="M188 279L189 280L188 279M215 279L216 280L215 279z"/>
<path style="fill:#63d78e; stroke:none;" d="M216 279L217 280L216 279M279 279L280 280L279 279z"/>
<path style="fill:#91dfaa; stroke:none;" d="M280 279L281 280L280 279z"/>
<path style="fill:#afe6bf; stroke:none;" d="M305 279L306 280L305 279z"/>
<path style="fill:#63d78e; stroke:none;" d="M306 279L307 280L306 279z"/>
<path style="fill:#91dfaa; stroke:none;" d="M370 279L371 280L370 279z"/>
<path style="fill:#afe6bf; stroke:none;" d="M371 279L372 280L371 279z"/>
<path style="fill:#91dfaa; stroke:none;" d="M398 279L399 280L398 279z"/>
<path style="fill:#63d78e; stroke:none;" d="M399 279L400 280L399 279z"/>
<path style="fill:#afe6bf; stroke:none;" d="M103 280L104 281L103 280z"/>
<path style="fill:#91dfaa; stroke:none;" d="M125 280L126 281L125 280z"/>
<path style="fill:#63d78e; stroke:none;" d="M190 280L191 281L190 280z"/>
<path style="fill:#91dfaa; stroke:none;" d="M191 280L192 281L191 280z"/>
<path style="fill:#afe6bf; stroke:none;" d="M192 280L193 281L192 280M211 280L212 281L211 280z"/>
<path style="fill:#91dfaa; stroke:none;" d="M212 280L213 281L212 280z"/>
<path style="fill:#63d78e; stroke:none;" d="M213 280L214 281L213 280M283 280L284 281L283 280z"/>
<path style="fill:#91dfaa; stroke:none;" d="M284 280L285 281L284 280z"/>
<path style="fill:#afe6bf; stroke:none;" d="M285 280L286 281L285 280M300.667 280.333L301.333 280.667L300.667 280.333z"/>
<path style="fill:#91dfaa; stroke:none;" d="M302 280L303 281L302 280z"/>
<path style="fill:#63d78e; stroke:none;" d="M303 280L304 281L303 280M373 280L374 281L373 280z"/>
<path style="fill:#afe6bf; stroke:none;" d="M374 280L375 281L374 280M394 280L395 281L394 280z"/>
<path style="fill:#91dfaa; stroke:none;" d="M395 280L396 281L395 280z"/>
<path style="fill:#63d78e; stroke:none;" d="M396 280L397 281L396 280M102 281L103 282L102 281M194.667 281.333L195.333 281.667L194.667 281.333z"/>
<path style="fill:#91dfaa; stroke:none;" d="M196.667 281.333L197.333 281.667L196.667 281.333z"/>
<path style="fill:#afe6bf; stroke:none;" d="M198 281L198 282L206 282L198 281z"/>
<path style="fill:#91dfaa; stroke:none;" d="M206.667 281.333L207.333 281.667L206.667 281.333z"/>
<path style="fill:#63d78e; stroke:none;" d="M208.667 281.333L209.333 281.667L208.667 281.333M288 281L288 282L291 282L288 281z"/>
<path style="fill:#91dfaa; stroke:none;" d="M291 281L291 282L295 282L291 281z"/>
<path style="fill:#63d78e; stroke:none;" d="M295 281L295 282L298 282L295 281M377.667 281.333L378.333 281.667L377.667 281.333z"/>
<path style="fill:#91dfaa; stroke:none;" d="M379.667 281.333L380.333 281.667L379.667 281.333z"/>
<path style="fill:#afe6bf; stroke:none;" d="M381 281L381 282L389 282L381 281z"/>
<path style="fill:#91dfaa; stroke:none;" d="M389.667 281.333L390.333 281.667L389.667 281.333z"/>
<path style="fill:#63d78e; stroke:none;" d="M391 281L392 282L391 281z"/>
<path style="fill:#afe6bf; stroke:none;" d="M102 282L103 283L102 282M124 282L125 283L124 282z"/>
<path style="fill:#63d78e; stroke:none;" d="M101 283L102 284L101 283M124 283L125 284L124 283z"/>
<path style="fill:#afe6bf; stroke:none;" d="M101 284L102 285L101 284M123 284L124 285L123 284z"/>
<path style="fill:#63d78e; stroke:none;" d="M123 285L124 286L123 285M261 285L261 286L266 286L261 285M320 285L320 286L326 286L320 285z"/>
<path style="fill:#91dfaa; stroke:none;" d="M100 286L101 287L100 286z"/>
<path style="fill:#afe6bf; stroke:none;" d="M122 286L123 287L122 286z"/>
<path style="fill:#63d78e; stroke:none;" d="M257 286L258 287L257 286z"/>
<path style="fill:#91dfaa; stroke:none;" d="M258 286L259 287L258 286z"/>
<path style="fill:#f4f5f4; stroke:none;" d="M337 300C335.758 294.081 333.391 288.398 327 286.573C317.802 283.945 307.293 291.9 298 292.829C285.986 294.031 277.225 288.239 266 286.329C260.971 285.474 255.825 286.943 252.653 291.105C244.244 302.138 264.139 308.353 272 310.572C295.358 317.164 316.399 310.965 337 300z"/>
<path style="fill:#afe6bf; stroke:none;" d="M267 286L268 287L267 286z"/>
<path style="fill:#91dfaa; stroke:none;" d="M268 286L269 287L268 286z"/>
<path style="fill:#63d78e; stroke:none;" d="M317 286L318 287L317 286z"/>
<path style="fill:#afe6bf; stroke:none;" d="M318 286L319 287L318 286M327 286L328 287L327 286z"/>
<path style="fill:#63d78e; stroke:none;" d="M328 286L329 287L328 286M122 287L123 288L122 287z"/>
<path style="fill:#afe6bf; stroke:none;" d="M256 287L257 288L256 287z"/>
<path style="fill:#91dfaa; stroke:none;" d="M270 287L271 288L270 287z"/>
<path style="fill:#63d78e; stroke:none;" d="M315 287L316 288L315 287z"/>
<path style="fill:#afe6bf; stroke:none;" d="M316 287L317 288L316 287z"/>
<path style="fill:#63d78e; stroke:none;" d="M330 287L331 288L330 287z"/>
<path style="fill:#91dfaa; stroke:none;" d="M99 288L100 289L99 288z"/>
<path style="fill:#63d78e; stroke:none;" d="M254 288L255 289L254 288z"/>
<path style="fill:#91dfaa; stroke:none;" d="M272 288L273 289L272 288z"/>
<path style="fill:#63d78e; stroke:none;" d="M273 288L274 289L273 288z"/>
<path style="fill:#91dfaa; stroke:none;" d="M313 288L314 289L313 288z"/>
<path style="fill:#afe6bf; stroke:none;" d="M314 288L315 289L314 288M331 288L332 289L331 288z"/>
<path style="fill:#91dfaa; stroke:none;" d="M121 289L122 290L121 289M253 289L254 290L253 289z"/>
<path style="fill:#afe6bf; stroke:none;" d="M274 289L275 290L274 289z"/>
<path style="fill:#91dfaa; stroke:none;" d="M275 289L276 290L275 289z"/>
<path style="fill:#63d78e; stroke:none;" d="M310 289L311 290L310 289z"/>
<path style="fill:#afe6bf; stroke:none;" d="M311 289L312 290L311 289M332 289L333 290L332 289z"/>
<path style="fill:#91dfaa; stroke:none;" d="M98 290L99 291L98 290z"/>
<path style="fill:#63d78e; stroke:none;" d="M252 290L253 291L252 290z"/>
<path style="fill:#afe6bf; stroke:none;" d="M277 290L278 291L277 290z"/>
<path style="fill:#91dfaa; stroke:none;" d="M278 290L279 291L278 290z"/>
<path style="fill:#63d78e; stroke:none;" d="M279 290L280 291L279 290M307 290L308 291L307 290z"/>
<path style="fill:#afe6bf; stroke:none;" d="M308 290L309 291L308 290M333 290L334 291L333 290z"/>
<path style="fill:#91dfaa; stroke:none;" d="M120 291L121 292L120 291z"/>
<path style="fill:#afe6bf; stroke:none;" d="M281 291L282 292L281 291z"/>
<path style="fill:#91dfaa; stroke:none;" d="M282 291L283 292L282 291z"/>
<path style="fill:#63d78e; stroke:none;" d="M283 291L284 292L283 291M302.667 291.333L303.333 291.667L302.667 291.333z"/>
<path style="fill:#91dfaa; stroke:none;" d="M304 291L305 292L304 291z"/>
<path style="fill:#afe6bf; stroke:none;" d="M305 291L306 292L305 291z"/>
<path style="fill:#91dfaa; stroke:none;" d="M334 291L335 292L334 291M97 292L98 293L97 292z"/>
<path style="fill:#afe6bf; stroke:none;" d="M251 292L252 293L251 292M286.667 292.333L287.333 292.667L286.667 292.333z"/>
<path style="fill:#91dfaa; stroke:none;" d="M288.667 292.333L289.333 292.667L288.667 292.333z"/>
<path style="fill:#63d78e; stroke:none;" d="M290 292L290 293L296 293L290 292z"/>
<path style="fill:#91dfaa; stroke:none;" d="M296 292L296 293L299 293L296 292z"/>
<path style="fill:#afe6bf; stroke:none;" d="M299.667 292.333L300.333 292.667L299.667 292.333z"/>
<path style="fill:#63d78e; stroke:none;" d="M335 292L336 293L335 292z"/>
<path style="fill:#afe6bf; stroke:none;" d="M97 293L98 294L97 293z"/>
<path style="fill:#91dfaa; stroke:none;" d="M119 293L120 294L119 293z"/>
<path style="fill:#63d78e; stroke:none;" d="M250 293L251 294L250 293z"/>
<path style="fill:#afe6bf; stroke:none;" d="M335 293L336 294L335 293z"/>
<path style="fill:#63d78e; stroke:none;" d="M96 294L97 295L96 294z"/>
<path style="fill:#afe6bf; stroke:none;" d="M250 294L251 295L250 294M96 295L97 296L96 295M118 295L119 296L118 295z"/>
<path style="fill:#91dfaa; stroke:none;" d="M336 295L337 296L336 295z"/>
<path style="fill:#63d78e; stroke:none;" d="M95 296L96 297L95 296M118 296L119 297L118 296M249.333 296.667L249.667 297.333L249.333 296.667z"/>
<path style="fill:#afe6bf; stroke:none;" d="M336.333 296.667L336.667 297.333L336.333 296.667M95 297L96 298L95 297M117 297L118 298L117 297z"/>
<path style="fill:#63d78e; stroke:none;" d="M94 298L95 299L94 298M117 298L118 299L117 298z"/>
<path style="fill:#91dfaa; stroke:none;" d="M249 298L250 299L249 298z"/>
<path style="fill:#afe6bf; stroke:none;" d="M94 299L95 300L94 299M116 299L117 300L116 299z"/>
<path style="fill:#63d78e; stroke:none;" d="M249 299L250 300L249 299M116 300L117 301L116 300M250 300L251 301L250 300z"/>
<path style="fill:#afe6bf; stroke:none;" d="M335 300L336 301L335 300z"/>
<path style="fill:#91dfaa; stroke:none;" d="M93 301L94 302L93 301z"/>
<path style="fill:#afe6bf; stroke:none;" d="M252 301L253 302L252 301z"/>
<path style="fill:#63d78e; stroke:none;" d="M334 301L335 302L334 301z"/>
<path style="fill:#91dfaa; stroke:none;" d="M115 302L116 303L115 302z"/>
<path style="fill:#63d78e; stroke:none;" d="M253 302L254 303L253 302z"/>
<path style="fill:#91dfaa; stroke:none;" d="M332 302L333 303L332 302M92 303L93 304L92 303M255 303L256 304L255 303z"/>
<path style="fill:#afe6bf; stroke:none;" d="M330 303L331 304L330 303z"/>
<path style="fill:#63d78e; stroke:none;" d="M331 303L332 304L331 303z"/>
<path style="fill:#91dfaa; stroke:none;" d="M114 304L115 305L114 304z"/>
<path style="fill:#afe6bf; stroke:none;" d="M257 304L258 305L257 304z"/>
<path style="fill:#63d78e; stroke:none;" d="M329 304L330 305L329 304z"/>
<path style="fill:#91dfaa; stroke:none;" d="M91 305L92 306L91 305z"/>
<path style="fill:#63d78e; stroke:none;" d="M258 305L259 306L258 305z"/>
<path style="fill:#afe6bf; stroke:none;" d="M259 305L260 306L259 305z"/>
<path style="fill:#91dfaa; stroke:none;" d="M327 305L328 306L327 305z"/>
<path style="fill:#afe6bf; stroke:none;" d="M113 306L114 307L113 306z"/>
<path style="fill:#63d78e; stroke:none;" d="M260 306L261 307L260 306z"/>
<path style="fill:#afe6bf; stroke:none;" d="M261 306L262 307L261 306z"/>
<path style="fill:#91dfaa; stroke:none;" d="M325 306L326 307L325 306M90 307L91 308L90 307z"/>
<path style="fill:#63d78e; stroke:none;" d="M113 307L114 308L113 307M262 307L263 308L262 307z"/>
<path style="fill:#afe6bf; stroke:none;" d="M263 307L264 308L263 307M322 307L323 308L322 307z"/>
<path style="fill:#63d78e; stroke:none;" d="M323 307L324 308L323 307z"/>
<path style="fill:#afe6bf; stroke:none;" d="M112 308L113 309L112 308z"/>
<path style="fill:#91dfaa; stroke:none;" d="M265 308L266 309L265 308z"/>
<path style="fill:#afe6bf; stroke:none;" d="M320 308L321 309L320 308z"/>
<path style="fill:#63d78e; stroke:none;" d="M321 308L322 309L321 308M89 309L90 310L89 309M112 309L113 310L112 309M267 309L268 310L267 309z"/>
<path style="fill:#afe6bf; stroke:none;" d="M268 309L269 310L268 309M317 309L318 310L317 309z"/>
<path style="fill:#63d78e; stroke:none;" d="M318 309L319 310L318 309z"/>
<path style="fill:#afe6bf; stroke:none;" d="M89 310L90 311L89 310z"/>
<path style="fill:#91dfaa; stroke:none;" d="M111 310L112 311L111 310z"/>
<path style="fill:#63d78e; stroke:none;" d="M270 310L271 311L270 310z"/>
<path style="fill:#91dfaa; stroke:none;" d="M271 310L272 311L271 310z"/>
<path style="fill:#afe6bf; stroke:none;" d="M314 310L315 311L314 310z"/>
<path style="fill:#91dfaa; stroke:none;" d="M315 310L316 311L315 310z"/>
<path style="fill:#63d78e; stroke:none;" d="M88 311L89 312L88 311M110 311L111 312L110 311z"/>
<path style="fill:#91dfaa; stroke:none;" d="M274 311L275 312L274 311z"/>
<path style="fill:#afe6bf; stroke:none;" d="M275 311L276 312L275 311M310 311L311 312L310 311z"/>
<path style="fill:#91dfaa; stroke:none;" d="M311 311L312 312L311 311z"/>
<path style="fill:#63d78e; stroke:none;" d="M312 311L313 312L312 311z"/>
<path style="fill:#afe6bf; stroke:none;" d="M88 312L89 313L88 312z"/>
<path style="fill:#91dfaa; stroke:none;" d="M108 312L109 313L108 312z"/>
<path style="fill:#63d78e; stroke:none;" d="M278 312L279 313L278 312z"/>
<path style="fill:#91dfaa; stroke:none;" d="M279 312L280 313L279 312z"/>
<path style="fill:#afe6bf; stroke:none;" d="M280.667 312.333L281.333 312.667L280.667 312.333M305 312L306 313L305 312z"/>
<path style="fill:#91dfaa; stroke:none;" d="M306.667 312.333L307.333 312.667L306.667 312.333z"/>
<path style="fill:#63d78e; stroke:none;" d="M308 312L309 313L308 312M88 313L88 314L107 314L88 313M284.667 313.333L285.333 313.667L284.667 313.333z"/>
<path style="fill:#91dfaa; stroke:none;" d="M286 313L286 314L289 314L286 313z"/>
<path style="fill:#afe6bf; stroke:none;" d="M289 313L289 314L297 314L289 313z"/>
<path style="fill:#91dfaa; stroke:none;" d="M297 313L297 314L301 314L297 313z"/>
<path style="fill:#63d78e; stroke:none;" d="M301.667 313.333L302.333 313.667L301.667 313.333z"/>
</svg>
